<svg xmlns="http://www.w3.org/2000/svg" width="1215.2" height="532.8000000000001" preserveAspectRatio="xMidYMid meet">
          <iframe id="bg" x="0" y="0" style="fill: #1e2126" width="1215.2" height="532.8000000000001"/>
          <g id="main">
            <g id="polygons"><path d=" M 420 426 L 319 426  328 266  361 280  460 276  399 344  445 345  L 420 426  Z" stroke="rgba(102,116,67,.2)" stroke-width="1px" fill="rgba(102,116,67,.2)"/><path d=" M 44 200 L 21 154  39 96  44 78  30 57  106 59  132 56  L 44 200  Z" stroke="rgba(120,183,55,.2)" stroke-width="1px" fill="rgba(120,183,55,.2)"/><path d=" M 1078 70 L 1084 172  1051 140  1043 178  981 162  983 28  990 26  L 1078 70  Z" stroke="rgba(228,122,101,.2)" stroke-width="1px" fill="rgba(228,122,101,.2)"/><path d=" M 1200 320 L 1180 309  1192 350  1041 301  1084 172  1127 180  1155 199  L 1200 320  Z" stroke="rgba(120,185,74,.2)" stroke-width="1px" fill="rgba(120,185,74,.2)"/><path d=" M 288 509 L 244 451  205 420  261 386  230 359  391 348  416 413  L 288 509  Z" stroke="rgba(97,92,119,.2)" stroke-width="1px" fill="rgba(97,92,119,.2)"/><path d=" M 1192 350 L 1200 320  1153 407  1180 309  1122 275  1127 180  1155 199  L 1192 350  Z" stroke="rgba(123,119,231,.2)" stroke-width="1px" fill="rgba(123,119,231,.2)"/><path d=" M 60 484 L 81 500  63 361  83 334  84 339  123 386  99 438  L 60 484  Z" stroke="rgba(217,216,105,.2)" stroke-width="1px" fill="rgba(217,216,105,.2)"/><path d=" M 826 348 L 831 314  887 271  886 298  923 264  923 276  958 292  L 826 348  Z" stroke="rgba(159,233,63,.2)" stroke-width="1px" fill="rgba(159,233,63,.2)"/><path d=" M 374 81 L 374 120  307 116  275 170  220 127  132 56  315 28  L 374 81  Z" stroke="rgba(113,99,146,.2)" stroke-width="1px" fill="rgba(113,99,146,.2)"/><path d=" M 113 287 L 18 308  30 57  21 154  44 78  39 96  136 97  L 113 287  Z" stroke="rgba(83,172,201,.2)" stroke-width="1px" fill="rgba(83,172,201,.2)"/><path d=" M 665 227 L 605 257  613 170  587 178  591 147  541 119  600 120  L 665 227  Z" stroke="rgba(206,222,199,.2)" stroke-width="1px" fill="rgba(206,222,199,.2)"/><path d=" M 275 170 L 300 215  136 97  106 59  132 56  264 30  307 116  L 275 170  Z" stroke="rgba(110,55,83,.2)" stroke-width="1px" fill="rgba(110,55,83,.2)"/><path d=" M 1122 275 L 1054 184  1043 178  1084 172  1127 180  1140 156  1179 158  L 1122 275  Z" stroke="rgba(86,97,156,.2)" stroke-width="1px" fill="rgba(86,97,156,.2)"/><path d=" M 995 332 L 958 292  923 276  984 243  1005 199  1054 184  1122 275  L 995 332  Z" stroke="rgba(194,65,131,.2)" stroke-width="1px" fill="rgba(194,65,131,.2)"/><path d=" M 665 227 L 613 170  587 178  591 147  541 119  518 88  516 76  L 665 227  Z" stroke="rgba(177,126,244,.2)" stroke-width="1px" fill="rgba(177,126,244,.2)"/><path d=" M 783 119 L 712 176  665 227  649 153  613 170  591 147  600 120  L 783 119  Z" stroke="rgba(93,132,79,.2)" stroke-width="1px" fill="rgba(93,132,79,.2)"/><path d=" M 145 500 L 99 438  123 386  205 420  230 359  261 386  319 426  L 145 500  Z" stroke="rgba(99,174,132,.2)" stroke-width="1px" fill="rgba(99,174,132,.2)"/><path d=" M 1084 172 L 1043 178  1051 140  983 28  990 26  1045 26  1143 35  L 1084 172  Z" stroke="rgba(70,102,141,.2)" stroke-width="1px" fill="rgba(70,102,141,.2)"/><path d=" M 913 369 L 995 332  923 276  958 292  923 264  984 243  1041 301  L 913 369  Z" stroke="rgba(91,135,254,.2)" stroke-width="1px" fill="rgba(91,135,254,.2)"/><path d=" M 513 506 L 484 514  416 413  420 426  471 421  481 415  502 460  L 513 506  Z" stroke="rgba(122,82,230,.2)" stroke-width="1px" fill="rgba(122,82,230,.2)"/><path d=" M 1196 489 L 1152 484  1153 407  1122 275  1180 309  1200 320  1203 314  L 1196 489  Z" stroke="rgba(183,95,230,.2)" stroke-width="1px" fill="rgba(183,95,230,.2)"/><path d=" M 913 369 L 923 276  923 264  958 292  984 243  1041 301  1015 323  L 913 369  Z" stroke="rgba(107,188,221,.2)" stroke-width="1px" fill="rgba(107,188,221,.2)"/><path d=" M 661 500 L 672 464  638 476  654 465  632 459  586 436  646 414  L 661 500  Z" stroke="rgba(58,111,75,.2)" stroke-width="1px" fill="rgba(58,111,75,.2)"/><path d=" M 377 190 L 374 120  354 151  307 116  315 28  378 71  436 79  L 377 190  Z" stroke="rgba(140,108,160,.2)" stroke-width="1px" fill="rgba(140,108,160,.2)"/><path d=" M 605 257 L 493 210  541 119  591 147  600 120  649 153  613 170  L 605 257  Z" stroke="rgba(78,160,109,.2)" stroke-width="1px" fill="rgba(78,160,109,.2)"/><path d=" M 429 470 L 391 348  416 413  399 344  445 345  481 415  471 421  L 429 470  Z" stroke="rgba(225,129,120,.2)" stroke-width="1px" fill="rgba(225,129,120,.2)"/><path d=" M 848 387 L 814 397  802 361  778 356  831 314  886 298  885 315  L 848 387  Z" stroke="rgba(231,160,105,.2)" stroke-width="1px" fill="rgba(231,160,105,.2)"/><path d=" M 958 292 L 923 264  923 276  887 271  886 298  885 315  831 314  L 958 292  Z" stroke="rgba(72,211,73,.2)" stroke-width="1px" fill="rgba(72,211,73,.2)"/><path d=" M 1013 462 L 1018 493  951 475  931 509  913 369  927 448  962 439  L 1013 462  Z" stroke="rgba(139,78,245,.2)" stroke-width="1px" fill="rgba(139,78,245,.2)"/><path d=" M 429 470 L 471 421  502 460  531 485  513 506  538 507  575 511  L 429 470  Z" stroke="rgba(114,201,138,.2)" stroke-width="1px" fill="rgba(114,201,138,.2)"/><path d=" M 591 147 L 587 178  541 119  518 88  429 155  436 79  524 17  L 591 147  Z" stroke="rgba(245,203,187,.2)" stroke-width="1px" fill="rgba(245,203,187,.2)"/><path d=" M 1049 491 L 1152 484  1153 407  1192 350  1194 378  1200 320  1203 314  L 1049 491  Z" stroke="rgba(77,205,163,.2)" stroke-width="1px" fill="rgba(77,205,163,.2)"/><path d=" M 1054 184 L 984 243  1005 199  981 162  1051 140  1140 156  1084 172  L 1054 184  Z" stroke="rgba(214,186,223,.2)" stroke-width="1px" fill="rgba(214,186,223,.2)"/><path d=" M 591 147 L 587 178  541 119  429 155  436 79  516 76  524 17  L 591 147  Z" stroke="rgba(195,195,130,.2)" stroke-width="1px" fill="rgba(195,195,130,.2)"/><path d=" M 81 500 L 60 484  24 461  99 438  123 386  205 420  244 451  L 81 500  Z" stroke="rgba(129,157,156,.2)" stroke-width="1px" fill="rgba(129,157,156,.2)"/><path d=" M 205 420 L 244 451  261 386  319 426  416 413  420 426  429 470  L 205 420  Z" stroke="rgba(59,127,123,.2)" stroke-width="1px" fill="rgba(59,127,123,.2)"/><path d=" M 1152 484 L 1153 407  1122 275  1180 309  1192 350  1200 320  1203 314  L 1152 484  Z" stroke="rgba(62,215,115,.2)" stroke-width="1px" fill="rgba(62,215,115,.2)"/><path d=" M 230 359 L 113 287  152 251  230 267  300 215  327 253  328 266  L 230 359  Z" stroke="rgba(171,98,145,.2)" stroke-width="1px" fill="rgba(171,98,145,.2)"/><path d=" M 594 345 L 569 337  460 276  472 223  489 229  493 210  605 257  L 594 345  Z" stroke="rgba(126,231,212,.2)" stroke-width="1px" fill="rgba(126,231,212,.2)"/><path d=" M 1192 350 L 1153 407  1180 309  1122 275  1127 180  1155 199  1203 314  L 1192 350  Z" stroke="rgba(117,71,95,.2)" stroke-width="1px" fill="rgba(117,71,95,.2)"/><path d=" M 538 507 L 522 516  513 506  484 514  471 421  481 415  556 439  L 538 507  Z" stroke="rgba(231,213,243,.2)" stroke-width="1px" fill="rgba(231,213,243,.2)"/><path d=" M 99 438 L 24 461  63 361  18 308  83 334  113 287  152 251  L 99 438  Z" stroke="rgba(201,240,209,.2)" stroke-width="1px" fill="rgba(201,240,209,.2)"/><path d=" M 646 414 L 586 436  556 439  481 415  556 273  605 257  648 280  L 646 414  Z" stroke="rgba(148,142,201,.2)" stroke-width="1px" fill="rgba(148,142,201,.2)"/><path d=" M 471 421 L 420 426  416 413  391 348  328 266  361 280  460 276  L 471 421  Z" stroke="rgba(112,127,163,.2)" stroke-width="1px" fill="rgba(112,127,163,.2)"/><path d=" M 391 348 L 328 266  327 253  300 215  377 190  392 231  460 276  L 391 348  Z" stroke="rgba(188,242,108,.2)" stroke-width="1px" fill="rgba(188,242,108,.2)"/><path d=" M 538 507 L 531 485  586 436  632 459  638 476  654 465  661 500  L 538 507  Z" stroke="rgba(60,251,72,.2)" stroke-width="1px" fill="rgba(60,251,72,.2)"/><path d=" M 848 387 L 826 348  814 397  802 361  778 356  887 271  886 298  L 848 387  Z" stroke="rgba(245,146,239,.2)" stroke-width="1px" fill="rgba(245,146,239,.2)"/><path d=" M 399 344 L 361 280  392 231  472 223  493 210  489 229  556 273  L 399 344  Z" stroke="rgba(97,164,80,.2)" stroke-width="1px" fill="rgba(97,164,80,.2)"/><path d=" M 951 475 L 927 459  962 439  996 459  1013 462  1024 431  1049 491  L 951 475  Z" stroke="rgba(174,172,73,.2)" stroke-width="1px" fill="rgba(174,172,73,.2)"/><path d=" M 638 476 L 632 459  654 465  672 464  680 454  814 397  830 485  L 638 476  Z" stroke="rgba(248,175,73,.2)" stroke-width="1px" fill="rgba(248,175,73,.2)"/><path d=" M 1005 199 L 881 230  783 119  742 30  983 28  990 26  1045 26  L 1005 199  Z" stroke="rgba(124,237,149,.2)" stroke-width="1px" fill="rgba(124,237,149,.2)"/><path d=" M 471 421 L 420 426  429 470  319 426  391 348  399 344  445 345  L 471 421  Z" stroke="rgba(239,215,208,.2)" stroke-width="1px" fill="rgba(239,215,208,.2)"/><path d=" M 1013 462 L 951 475  931 509  927 459  913 369  962 439  1024 431  L 1013 462  Z" stroke="rgba(138,132,55,.2)" stroke-width="1px" fill="rgba(138,132,55,.2)"/><path d=" M 814 397 L 778 356  720 329  831 314  886 298  885 315  826 348  L 814 397  Z" stroke="rgba(92,144,150,.2)" stroke-width="1px" fill="rgba(92,144,150,.2)"/><path d=" M 1155 199 L 1127 180  1054 184  1084 172  1043 178  1051 140  1078 70  L 1155 199  Z" stroke="rgba(224,106,221,.2)" stroke-width="1px" fill="rgba(224,106,221,.2)"/><path d=" M 399 344 L 391 348  230 267  300 215  327 253  377 190  392 231  L 399 344  Z" stroke="rgba(229,78,150,.2)" stroke-width="1px" fill="rgba(229,78,150,.2)"/><path d=" M 113 287 L 18 308  14 179  21 154  39 96  44 78  136 97  L 113 287  Z" stroke="rgba(194,111,129,.2)" stroke-width="1px" fill="rgba(194,111,129,.2)"/><path d=" M 24 461 L 60 484  63 361  84 339  99 438  123 386  205 420  L 24 461  Z" stroke="rgba(81,183,157,.2)" stroke-width="1px" fill="rgba(81,183,157,.2)"/><path d=" M 648 280 L 594 345  569 337  556 273  587 178  613 170  665 227  L 648 280  Z" stroke="rgba(202,166,228,.2)" stroke-width="1px" fill="rgba(202,166,228,.2)"/><path d=" M 654 465 L 661 500  638 476  604 513  586 436  646 414  680 454  L 654 465  Z" stroke="rgba(60,126,205,.2)" stroke-width="1px" fill="rgba(60,126,205,.2)"/><path d=" M 1018 493 L 1013 462  996 459  951 475  927 459  927 448  962 439  L 1018 493  Z" stroke="rgba(104,135,155,.2)" stroke-width="1px" fill="rgba(104,135,155,.2)"/><path d=" M 288 509 L 244 451  205 420  230 359  212 284  230 267  391 348  L 288 509  Z" stroke="rgba(116,74,182,.2)" stroke-width="1px" fill="rgba(116,74,182,.2)"/><path d=" M 1143 35 L 1078 70  1051 140  1043 178  981 162  882 88  983 28  L 1143 35  Z" stroke="rgba(134,88,148,.2)" stroke-width="1px" fill="rgba(134,88,148,.2)"/><path d=" M 958 292 L 923 264  981 162  1051 140  1043 178  1084 172  1054 184  L 958 292  Z" stroke="rgba(158,97,144,.2)" stroke-width="1px" fill="rgba(158,97,144,.2)"/><path d=" M 720 329 L 594 345  648 280  605 257  665 227  712 176  743 255  L 720 329  Z" stroke="rgba(105,105,64,.2)" stroke-width="1px" fill="rgba(105,105,64,.2)"/><path d=" M 377 190 L 354 151  307 116  315 28  374 81  378 71  436 79  L 377 190  Z" stroke="rgba(214,208,215,.2)" stroke-width="1px" fill="rgba(214,208,215,.2)"/><path d=" M 1049 491 L 1018 493  951 475  927 459  927 448  962 439  1024 431  L 1049 491  Z" stroke="rgba(228,91,72,.2)" stroke-width="1px" fill="rgba(228,91,72,.2)"/><path d=" M 361 280 L 327 253  328 266  230 267  275 170  354 151  377 190  L 361 280  Z" stroke="rgba(221,88,55,.2)" stroke-width="1px" fill="rgba(221,88,55,.2)"/><path d=" M 328 266 L 230 267  300 215  275 170  354 151  377 190  392 231  L 328 266  Z" stroke="rgba(166,143,227,.2)" stroke-width="1px" fill="rgba(166,143,227,.2)"/><path d=" M 661 500 L 604 513  638 476  654 465  632 459  646 414  680 454  L 661 500  Z" stroke="rgba(196,177,235,.2)" stroke-width="1px" fill="rgba(196,177,235,.2)"/><path d=" M 665 227 L 605 257  587 178  541 119  591 147  600 120  649 153  L 665 227  Z" stroke="rgba(75,154,133,.2)" stroke-width="1px" fill="rgba(75,154,133,.2)"/><path d=" M 1152 484 L 1024 431  1180 309  1203 314  1200 320  1192 350  1194 378  L 1152 484  Z" stroke="rgba(126,149,115,.2)" stroke-width="1px" fill="rgba(126,149,115,.2)"/><path d=" M 136 97 L 14 179  21 154  39 96  44 78  30 57  132 56  L 136 97  Z" stroke="rgba(133,126,104,.2)" stroke-width="1px" fill="rgba(133,126,104,.2)"/><path d=" M 1043 178 L 1054 184  1005 199  984 243  923 264  881 230  1051 140  L 1043 178  Z" stroke="rgba(177,241,247,.2)" stroke-width="1px" fill="rgba(177,241,247,.2)"/><path d=" M 591 147 L 613 170  587 178  493 210  518 88  516 76  524 17  L 591 147  Z" stroke="rgba(165,184,90,.2)" stroke-width="1px" fill="rgba(165,184,90,.2)"/><path d=" M 81 500 L 24 461  63 361  83 334  84 339  123 386  99 438  L 81 500  Z" stroke="rgba(95,84,76,.2)" stroke-width="1px" fill="rgba(95,84,76,.2)"/><path d=" M 472 223 L 392 231  377 190  354 151  374 120  374 81  436 79  L 472 223  Z" stroke="rgba(103,102,189,.2)" stroke-width="1px" fill="rgba(103,102,189,.2)"/><path d=" M 14 179 L 30 57  44 78  39 96  106 59  132 56  136 97  L 14 179  Z" stroke="rgba(85,241,136,.2)" stroke-width="1px" fill="rgba(85,241,136,.2)"/><path d=" M 672 464 L 661 500  654 465  638 476  632 459  586 436  594 345  L 672 464  Z" stroke="rgba(58,184,70,.2)" stroke-width="1px" fill="rgba(58,184,70,.2)"/><path d=" M 594 345 L 569 337  556 273  605 257  665 227  743 255  687 274  L 594 345  Z" stroke="rgba(183,214,163,.2)" stroke-width="1px" fill="rgba(183,214,163,.2)"/><path d=" M 778 356 L 802 361  831 314  826 348  885 315  848 387  913 369  L 778 356  Z" stroke="rgba(116,65,233,.2)" stroke-width="1px" fill="rgba(116,65,233,.2)"/><path d=" M 513 506 L 502 460  531 485  556 439  538 507  575 511  604 513  L 513 506  Z" stroke="rgba(254,85,192,.2)" stroke-width="1px" fill="rgba(254,85,192,.2)"/><path d=" M 1018 493 L 951 475  927 459  927 448  996 459  962 439  1024 431  L 1018 493  Z" stroke="rgba(144,115,188,.2)" stroke-width="1px" fill="rgba(144,115,188,.2)"/><path d=" M 1200 320 L 1192 350  1194 378  1153 407  1041 301  1122 275  1155 199  L 1200 320  Z" stroke="rgba(226,137,248,.2)" stroke-width="1px" fill="rgba(226,137,248,.2)"/><path d=" M 927 448 L 848 387  826 348  885 315  886 298  958 292  995 332  L 927 448  Z" stroke="rgba(159,148,189,.2)" stroke-width="1px" fill="rgba(159,148,189,.2)"/><path d=" M 575 511 L 522 516  484 514  513 506  502 460  531 485  556 439  L 575 511  Z" stroke="rgba(207,175,188,.2)" stroke-width="1px" fill="rgba(207,175,188,.2)"/><path d=" M 995 332 L 923 276  885 315  886 298  887 271  881 230  984 243  L 995 332  Z" stroke="rgba(244,140,116,.2)" stroke-width="1px" fill="rgba(244,140,116,.2)"/><path d=" M 556 273 L 460 276  392 231  377 190  429 155  493 210  587 178  L 556 273  Z" stroke="rgba(221,186,124,.2)" stroke-width="1px" fill="rgba(221,186,124,.2)"/><path d=" M 1049 491 L 1018 493  1013 462  1024 431  1153 407  1192 350  1194 378  L 1049 491  Z" stroke="rgba(79,105,187,.2)" stroke-width="1px" fill="rgba(79,105,187,.2)"/><path d=" M 145 500 L 99 438  63 361  84 339  83 334  113 287  230 359  L 145 500  Z" stroke="rgba(76,108,252,.2)" stroke-width="1px" fill="rgba(76,108,252,.2)"/><path d=" M 604 513 L 575 511  522 516  484 514  502 460  556 439  531 485  L 604 513  Z" stroke="rgba(99,162,183,.2)" stroke-width="1px" fill="rgba(99,162,183,.2)"/><path d=" M 429 155 L 377 190  374 120  354 151  374 81  307 116  315 28  L 429 155  Z" stroke="rgba(242,86,93,.2)" stroke-width="1px" fill="rgba(242,86,93,.2)"/><path d=" M 743 255 L 665 227  712 176  613 170  649 153  742 30  882 88  L 743 255  Z" stroke="rgba(59,96,184,.2)" stroke-width="1px" fill="rgba(59,96,184,.2)"/><path d=" M 1155 199 L 1054 184  1005 199  1043 178  1051 140  1140 156  1179 158  L 1155 199  Z" stroke="rgba(135,127,193,.2)" stroke-width="1px" fill="rgba(135,127,193,.2)"/><path d=" M 604 513 L 638 476  632 459  586 436  646 414  680 454  672 464  L 604 513  Z" stroke="rgba(188,69,112,.2)" stroke-width="1px" fill="rgba(188,69,112,.2)"/><path d=" M 927 459 L 927 448  962 439  951 475  996 459  1013 462  1018 493  L 927 459  Z" stroke="rgba(133,205,241,.2)" stroke-width="1px" fill="rgba(133,205,241,.2)"/><path d=" M 471 421 L 420 426  416 413  391 348  399 344  361 280  460 276  L 471 421  Z" stroke="rgba(253,85,203,.2)" stroke-width="1px" fill="rgba(253,85,203,.2)"/><path d=" M 1122 275 L 1054 184  1043 178  1084 172  1051 140  1140 156  1179 158  L 1122 275  Z" stroke="rgba(232,56,61,.2)" stroke-width="1px" fill="rgba(232,56,61,.2)"/><path d=" M 1015 323 L 958 292  923 276  923 264  981 162  1005 199  1043 178  L 1015 323  Z" stroke="rgba(240,136,128,.2)" stroke-width="1px" fill="rgba(240,136,128,.2)"/><path d=" M 361 280 L 328 266  327 253  300 215  354 151  374 120  429 155  L 361 280  Z" stroke="rgba(199,145,137,.2)" stroke-width="1px" fill="rgba(199,145,137,.2)"/><path d=" M 212 284 L 113 287  152 251  275 170  300 215  327 253  328 266  L 212 284  Z" stroke="rgba(108,79,251,.2)" stroke-width="1px" fill="rgba(108,79,251,.2)"/><path d=" M 1005 199 L 981 162  1043 178  1051 140  1084 172  1140 156  1127 180  L 1005 199  Z" stroke="rgba(146,164,78,.2)" stroke-width="1px" fill="rgba(146,164,78,.2)"/><path d=" M 586 436 L 556 439  569 337  556 273  605 257  648 280  687 274  L 586 436  Z" stroke="rgba(94,222,146,.2)" stroke-width="1px" fill="rgba(94,222,146,.2)"/><path d=" M 995 332 L 885 315  886 298  887 271  881 230  923 264  984 243  L 995 332  Z" stroke="rgba(208,119,102,.2)" stroke-width="1px" fill="rgba(208,119,102,.2)"/><path d=" M 958 292 L 886 298  885 315  826 348  831 314  881 230  923 264  L 958 292  Z" stroke="rgba(83,253,211,.2)" stroke-width="1px" fill="rgba(83,253,211,.2)"/><path d=" M 489 229 L 460 276  472 223  392 231  429 155  541 119  587 178  L 489 229  Z" stroke="rgba(239,126,170,.2)" stroke-width="1px" fill="rgba(239,126,170,.2)"/><path d=" M 531 485 L 502 460  429 470  471 421  420 426  416 413  445 345  L 531 485  Z" stroke="rgba(55,212,212,.2)" stroke-width="1px" fill="rgba(55,212,212,.2)"/><path d=" M 261 386 L 244 451  205 420  123 386  152 251  212 284  230 267  L 261 386  Z" stroke="rgba(221,59,124,.2)" stroke-width="1px" fill="rgba(221,59,124,.2)"/><path d=" M 802 361 L 778 356  646 414  648 280  687 274  743 255  831 314  L 802 361  Z" stroke="rgba(84,64,74,.2)" stroke-width="1px" fill="rgba(84,64,74,.2)"/><path d=" M 931 509 L 927 459  927 448  962 439  1024 431  996 459  1013 462  L 931 509  Z" stroke="rgba(148,172,235,.2)" stroke-width="1px" fill="rgba(148,172,235,.2)"/><path d=" M 1155 199 L 1127 180  1054 184  1084 172  1140 156  1051 140  1143 35  L 1155 199  Z" stroke="rgba(64,115,74,.2)" stroke-width="1px" fill="rgba(64,115,74,.2)"/><path d=" M 632 459 L 638 476  604 513  575 511  531 485  556 439  646 414  L 632 459  Z" stroke="rgba(168,225,141,.2)" stroke-width="1px" fill="rgba(168,225,141,.2)"/><path d=" M 522 516 L 513 506  538 507  531 485  556 439  586 436  638 476  L 522 516  Z" stroke="rgba(187,109,182,.2)" stroke-width="1px" fill="rgba(187,109,182,.2)"/><path d=" M 613 170 L 665 227  587 178  541 119  518 88  516 76  600 120  L 613 170  Z" stroke="rgba(63,79,227,.2)" stroke-width="1px" fill="rgba(63,79,227,.2)"/><path d=" M 460 276 L 392 231  377 190  472 223  429 155  493 210  587 178  L 460 276  Z" stroke="rgba(198,165,72,.2)" stroke-width="1px" fill="rgba(198,165,72,.2)"/><path d=" M 687 274 L 648 280  665 227  613 170  591 147  649 153  783 119  L 687 274  Z" stroke="rgba(117,100,101,.2)" stroke-width="1px" fill="rgba(117,100,101,.2)"/><path d=" M 575 511 L 638 476  632 459  654 465  672 464  680 454  747 495  L 575 511  Z" stroke="rgba(107,248,141,.2)" stroke-width="1px" fill="rgba(107,248,141,.2)"/><path d=" M 538 507 L 522 516  513 506  484 514  502 460  556 439  586 436  L 538 507  Z" stroke="rgba(70,132,106,.2)" stroke-width="1px" fill="rgba(70,132,106,.2)"/><path d=" M 327 253 L 300 215  328 266  230 267  220 127  307 116  354 151  L 327 253  Z" stroke="rgba(156,129,172,.2)" stroke-width="1px" fill="rgba(156,129,172,.2)"/><path d=" M 99 438 L 60 484  24 461  18 308  113 287  83 334  84 339  L 99 438  Z" stroke="rgba(83,244,238,.2)" stroke-width="1px" fill="rgba(83,244,238,.2)"/><path d=" M 136 97 L 21 154  39 96  44 78  106 59  30 57  264 30  L 136 97  Z" stroke="rgba(153,245,223,.2)" stroke-width="1px" fill="rgba(153,245,223,.2)"/><path d=" M 81 500 L 60 484  24 461  63 361  83 334  84 339  123 386  L 81 500  Z" stroke="rgba(253,174,68,.2)" stroke-width="1px" fill="rgba(253,174,68,.2)"/><path d=" M 244 451 L 288 509  145 500  99 438  123 386  230 359  261 386  L 244 451  Z" stroke="rgba(216,63,74,.2)" stroke-width="1px" fill="rgba(216,63,74,.2)"/><path d=" M 1078 70 L 1051 140  1043 178  981 162  882 88  990 26  1045 26  L 1078 70  Z" stroke="rgba(215,60,118,.2)" stroke-width="1px" fill="rgba(215,60,118,.2)"/><path d=" M 84 339 L 99 438  63 361  18 308  113 287  152 251  212 284  L 84 339  Z" stroke="rgba(177,157,109,.2)" stroke-width="1px" fill="rgba(177,157,109,.2)"/><path d=" M 136 97 L 44 78  39 96  44 200  21 154  14 179  132 56  L 136 97  Z" stroke="rgba(180,171,79,.2)" stroke-width="1px" fill="rgba(180,171,79,.2)"/><path d=" M 429 155 L 354 151  374 120  374 81  378 71  524 17  516 76  L 429 155  Z" stroke="rgba(206,157,136,.2)" stroke-width="1px" fill="rgba(206,157,136,.2)"/><path d=" M 802 361 L 778 356  720 329  687 274  648 280  665 227  712 176  L 802 361  Z" stroke="rgba(195,128,242,.2)" stroke-width="1px" fill="rgba(195,128,242,.2)"/><path d=" M 848 387 L 814 397  720 329  743 255  831 314  885 315  826 348  L 848 387  Z" stroke="rgba(162,101,80,.2)" stroke-width="1px" fill="rgba(162,101,80,.2)"/><path d=" M 377 190 L 300 215  275 170  307 116  374 81  378 71  374 120  L 377 190  Z" stroke="rgba(193,224,87,.2)" stroke-width="1px" fill="rgba(193,224,87,.2)"/><path d=" M 995 332 L 885 315  886 298  887 271  923 276  923 264  984 243  L 995 332  Z" stroke="rgba(68,199,137,.2)" stroke-width="1px" fill="rgba(68,199,137,.2)"/><path d=" M 1140 156 L 1127 180  1084 172  1051 140  1078 70  990 26  1045 26  L 1140 156  Z" stroke="rgba(144,96,155,.2)" stroke-width="1px" fill="rgba(144,96,155,.2)"/><path d=" M 604 513 L 586 436  632 459  646 414  654 465  680 454  672 464  L 604 513  Z" stroke="rgba(75,109,78,.2)" stroke-width="1px" fill="rgba(75,109,78,.2)"/><path d=" M 1127 180 L 1084 172  1054 184  1043 178  1005 199  981 162  1078 70  L 1127 180  Z" stroke="rgba(68,91,131,.2)" stroke-width="1px" fill="rgba(68,91,131,.2)"/><path d=" M 1018 493 L 951 475  962 439  996 459  1013 462  1024 431  1152 484  L 1018 493  Z" stroke="rgba(238,183,87,.2)" stroke-width="1px" fill="rgba(238,183,87,.2)"/><path d=" M 531 485 L 502 460  429 470  420 426  416 413  445 345  481 415  L 531 485  Z" stroke="rgba(67,227,186,.2)" stroke-width="1px" fill="rgba(67,227,186,.2)"/><path d=" M 84 339 L 123 386  63 361  14 179  44 200  152 251  113 287  L 84 339  Z" stroke="rgba(59,182,232,.2)" stroke-width="1px" fill="rgba(59,182,232,.2)"/><path d=" M 996 459 L 1018 493  951 475  931 509  927 459  927 448  1024 431  L 996 459  Z" stroke="rgba(102,220,243,.2)" stroke-width="1px" fill="rgba(102,220,243,.2)"/><path d=" M 44 200 L 14 179  21 154  30 57  44 78  106 59  132 56  L 44 200  Z" stroke="rgba(113,110,75,.2)" stroke-width="1px" fill="rgba(113,110,75,.2)"/><path d=" M 747 495 L 802 361  814 397  848 387  927 448  927 459  951 475  L 747 495  Z" stroke="rgba(86,222,225,.2)" stroke-width="1px" fill="rgba(86,222,225,.2)"/><path d=" M 778 356 L 802 361  826 348  831 314  886 298  885 315  913 369  L 778 356  Z" stroke="rgba(190,190,153,.2)" stroke-width="1px" fill="rgba(190,190,153,.2)"/><path d=" M 378 71 L 374 81  374 120  354 151  307 116  220 127  264 30  L 378 71  Z" stroke="rgba(129,184,90,.2)" stroke-width="1px" fill="rgba(129,184,90,.2)"/><path d=" M 885 315 L 831 314  881 230  887 271  923 264  923 276  958 292  L 885 315  Z" stroke="rgba(235,57,187,.2)" stroke-width="1px" fill="rgba(235,57,187,.2)"/><path d=" M 212 284 L 230 359  123 386  84 339  83 334  113 287  44 200  L 212 284  Z" stroke="rgba(171,127,139,.2)" stroke-width="1px" fill="rgba(171,127,139,.2)"/><path d=" M 591 147 L 541 119  518 88  516 76  436 79  374 81  378 71  L 591 147  Z" stroke="rgba(141,115,75,.2)" stroke-width="1px" fill="rgba(141,115,75,.2)"/><path d=" M 361 280 L 328 266  327 253  354 151  377 190  429 155  472 223  L 361 280  Z" stroke="rgba(178,122,85,.2)" stroke-width="1px" fill="rgba(178,122,85,.2)"/><path d=" M 44 200 L 39 96  14 179  21 154  30 57  106 59  132 56  L 44 200  Z" stroke="rgba(242,153,102,.2)" stroke-width="1px" fill="rgba(242,153,102,.2)"/><path d=" M 354 151 L 275 170  220 127  264 30  315 28  378 71  374 81  L 354 151  Z" stroke="rgba(240,164,96,.2)" stroke-width="1px" fill="rgba(240,164,96,.2)"/><path d=" M 84 339 L 83 334  63 361  18 308  44 200  152 251  212 284  L 84 339  Z" stroke="rgba(118,84,190,.2)" stroke-width="1px" fill="rgba(118,84,190,.2)"/><path d=" M 575 511 L 538 507  531 485  513 506  502 460  481 415  586 436  L 575 511  Z" stroke="rgba(77,96,189,.2)" stroke-width="1px" fill="rgba(77,96,189,.2)"/><path d=" M 687 274 L 648 280  605 257  587 178  613 170  649 153  712 176  L 687 274  Z" stroke="rgba(247,221,254,.2)" stroke-width="1px" fill="rgba(247,221,254,.2)"/></g>
            <g id="points"/>
          </g>
        </svg>