<svg xmlns="http://www.w3.org/2000/svg" width="1215.2" height="532.8000000000001" preserveAspectRatio="xMidYMid meet">
          <iframe id="bg" x="0" y="0" style="fill: #1e2126" width="1215.2" height="532.8000000000001"/>
          <g id="main">
            <g id="polygons"><path d=" M 1181 157 L 1045 131  1050 50  1084 39  1106 66  1140 58  1165 39  L 1181 157  Z" stroke="rgba(107,127,122,.2)" stroke-width="1px" fill="rgba(107,127,122,.2)"/><path d=" M 151 154 L 116 116  100 77  39 172  35 122  67 49  225 25  L 151 154  Z" stroke="rgba(188,75,131,.2)" stroke-width="1px" fill="rgba(188,75,131,.2)"/><path d=" M 837 315 L 863 359  808 346  658 286  735 248  821 222  830 281  L 837 315  Z" stroke="rgba(185,91,182,.2)" stroke-width="1px" fill="rgba(185,91,182,.2)"/><path d=" M 64 373 L 26 367  21 170  27 196  39 172  65 247  124 217  L 64 373  Z" stroke="rgba(59,130,103,.2)" stroke-width="1px" fill="rgba(59,130,103,.2)"/><path d=" M 561 195 L 515 185  514 201  492 210  379 178  412 88  415 81  L 561 195  Z" stroke="rgba(98,240,160,.2)" stroke-width="1px" fill="rgba(98,240,160,.2)"/><path d=" M 219 456 L 233 478  126 478  136 438  64 373  138 336  194 357  L 219 456  Z" stroke="rgba(152,191,219,.2)" stroke-width="1px" fill="rgba(152,191,219,.2)"/><path d=" M 1181 157 L 1123 99  1140 58  1106 66  1050 50  1084 39  1165 39  L 1181 157  Z" stroke="rgba(96,181,246,.2)" stroke-width="1px" fill="rgba(96,181,246,.2)"/><path d=" M 412 444 L 407 435  309 402  276 399  339 341  335 258  423 340  L 412 444  Z" stroke="rgba(101,126,60,.2)" stroke-width="1px" fill="rgba(101,126,60,.2)"/><path d=" M 939 401 L 863 359  876 315  893 308  892 306  964 297  1012 350  L 939 401  Z" stroke="rgba(102,207,186,.2)" stroke-width="1px" fill="rgba(102,207,186,.2)"/><path d=" M 136 438 L 37 471  15 434  26 367  39 270  63 333  138 336  L 136 438  Z" stroke="rgba(198,183,167,.2)" stroke-width="1px" fill="rgba(198,183,167,.2)"/><path d=" M 531 259 L 524 258  492 210  469 164  515 185  526 175  561 195  L 531 259  Z" stroke="rgba(168,102,228,.2)" stroke-width="1px" fill="rgba(168,102,228,.2)"/><path d=" M 333 504 L 255 434  219 430  276 399  242 332  339 341  363 343  L 333 504  Z" stroke="rgba(243,206,163,.2)" stroke-width="1px" fill="rgba(243,206,163,.2)"/><path d=" M 567 320 L 492 210  514 201  515 185  526 175  561 195  561 221  L 567 320  Z" stroke="rgba(88,146,155,.2)" stroke-width="1px" fill="rgba(88,146,155,.2)"/><path d=" M 918 519 L 827 505  833 499  767 508  770 438  835 469  968 474  L 918 519  Z" stroke="rgba(140,246,65,.2)" stroke-width="1px" fill="rgba(140,246,65,.2)"/><path d=" M 151 414 L 136 438  64 373  15 434  26 367  39 270  65 247  L 151 414  Z" stroke="rgba(95,56,121,.2)" stroke-width="1px" fill="rgba(95,56,121,.2)"/><path d=" M 637 494 L 582 510  503 460  473 395  531 259  567 320  658 286  L 637 494  Z" stroke="rgba(127,94,74,.2)" stroke-width="1px" fill="rgba(127,94,74,.2)"/><path d=" M 1079 311 L 1109 275  1166 285  1177 289  1085 217  1088 199  1181 157  L 1079 311  Z" stroke="rgba(121,190,177,.2)" stroke-width="1px" fill="rgba(121,190,177,.2)"/><path d=" M 953 373 L 893 308  892 306  876 315  883 303  830 281  971 200  L 953 373  Z" stroke="rgba(102,173,197,.2)" stroke-width="1px" fill="rgba(102,173,197,.2)"/><path d=" M 1192 108 L 1181 157  1123 99  1140 58  1106 66  1050 50  1084 39  L 1192 108  Z" stroke="rgba(79,225,115,.2)" stroke-width="1px" fill="rgba(79,225,115,.2)"/><path d=" M 303 88 L 315 108  243 45  187 152  129 69  94 53  329 20  L 303 88  Z" stroke="rgba(247,186,168,.2)" stroke-width="1px" fill="rgba(247,186,168,.2)"/><path d=" M 412 88 L 395 65  371 87  347 81  315 108  303 88  329 20  L 412 88  Z" stroke="rgba(175,231,130,.2)" stroke-width="1px" fill="rgba(175,231,130,.2)"/><path d=" M 1193 295 L 1130 340  1079 311  1044 267  1109 275  1085 217  1088 199  L 1193 295  Z" stroke="rgba(108,225,69,.2)" stroke-width="1px" fill="rgba(108,225,69,.2)"/><path d=" M 637 494 L 678 435  701 472  770 438  767 508  719 516  827 505  L 637 494  Z" stroke="rgba(76,59,233,.2)" stroke-width="1px" fill="rgba(76,59,233,.2)"/><path d=" M 1045 131 L 1022 110  1050 50  1084 39  1165 39  1197 39  1140 58  L 1045 131  Z" stroke="rgba(240,175,68,.2)" stroke-width="1px" fill="rgba(240,175,68,.2)"/><path d=" M 495 516 L 333 504  407 435  412 444  418 349  473 395  503 460  L 495 516  Z" stroke="rgba(98,100,69,.2)" stroke-width="1px" fill="rgba(98,100,69,.2)"/><path d=" M 1140 58 L 1106 66  1123 99  1022 110  1050 50  990 69  997 28  L 1140 58  Z" stroke="rgba(158,56,188,.2)" stroke-width="1px" fill="rgba(158,56,188,.2)"/><path d=" M 968 474 L 977 451  1061 510  1064 384  1104 437  1102 465  1169 439  L 968 474  Z" stroke="rgba(109,219,194,.2)" stroke-width="1px" fill="rgba(109,219,194,.2)"/><path d=" M 1045 131 L 973 149  971 200  843 216  794 65  997 28  990 69  L 1045 131  Z" stroke="rgba(104,167,109,.2)" stroke-width="1px" fill="rgba(104,167,109,.2)"/><path d=" M 637 494 L 678 435  701 472  770 438  767 508  833 499  827 505  L 637 494  Z" stroke="rgba(67,212,126,.2)" stroke-width="1px" fill="rgba(67,212,126,.2)"/><path d=" M 863 359 L 876 315  837 315  883 303  830 281  933 277  964 297  L 863 359  Z" stroke="rgba(125,104,98,.2)" stroke-width="1px" fill="rgba(125,104,98,.2)"/><path d=" M 1109 275 L 1079 311  1044 267  971 200  1045 131  1088 199  1181 157  L 1109 275  Z" stroke="rgba(81,192,187,.2)" stroke-width="1px" fill="rgba(81,192,187,.2)"/><path d=" M 892 306 L 893 308  883 303  876 315  837 315  830 281  821 222  L 892 306  Z" stroke="rgba(93,212,103,.2)" stroke-width="1px" fill="rgba(93,212,103,.2)"/><path d=" M 1061 510 L 1102 465  1104 437  1064 384  1130 340  1177 289  1193 295  L 1061 510  Z" stroke="rgba(156,241,64,.2)" stroke-width="1px" fill="rgba(156,241,64,.2)"/><path d=" M 719 516 L 767 508  770 438  835 469  833 499  853 481  904 501  L 719 516  Z" stroke="rgba(225,214,247,.2)" stroke-width="1px" fill="rgba(225,214,247,.2)"/><path d=" M 412 444 L 407 435  473 395  503 460  580 394  637 494  582 510  L 412 444  Z" stroke="rgba(229,213,217,.2)" stroke-width="1px" fill="rgba(229,213,217,.2)"/><path d=" M 242 332 L 243 309  205 266  146 234  213 177  354 177  284 238  L 242 332  Z" stroke="rgba(59,111,131,.2)" stroke-width="1px" fill="rgba(59,111,131,.2)"/><path d=" M 808 346 L 837 315  830 281  883 303  933 277  892 306  893 308  L 808 346  Z" stroke="rgba(252,92,217,.2)" stroke-width="1px" fill="rgba(252,92,217,.2)"/><path d=" M 673 521 L 701 472  770 438  835 469  853 481  833 499  827 505  L 673 521  Z" stroke="rgba(164,214,199,.2)" stroke-width="1px" fill="rgba(164,214,199,.2)"/><path d=" M 126 478 L 136 438  151 414  219 456  219 430  255 434  276 399  L 126 478  Z" stroke="rgba(204,109,95,.2)" stroke-width="1px" fill="rgba(204,109,95,.2)"/><path d=" M 794 65 L 649 163  699 94  614 73  716 54  715 20  750 10  L 794 65  Z" stroke="rgba(77,86,173,.2)" stroke-width="1px" fill="rgba(77,86,173,.2)"/><path d=" M 65 247 L 39 270  21 170  35 122  39 172  116 116  128 195  L 65 247  Z" stroke="rgba(223,65,86,.2)" stroke-width="1px" fill="rgba(223,65,86,.2)"/><path d=" M 379 178 L 315 108  371 87  347 81  395 65  403 23  415 81  L 379 178  Z" stroke="rgba(78,105,152,.2)" stroke-width="1px" fill="rgba(78,105,152,.2)"/><path d=" M 1106 66 L 1050 50  1045 131  1022 110  990 69  973 149  902 100  L 1106 66  Z" stroke="rgba(230,138,244,.2)" stroke-width="1px" fill="rgba(230,138,244,.2)"/><path d=" M 843 216 L 821 222  699 94  716 54  755 49  715 20  750 10  L 843 216  Z" stroke="rgba(90,157,248,.2)" stroke-width="1px" fill="rgba(90,157,248,.2)"/><path d=" M 395 65 L 371 87  347 81  315 108  303 88  243 45  225 25  L 395 65  Z" stroke="rgba(147,100,252,.2)" stroke-width="1px" fill="rgba(147,100,252,.2)"/><path d=" M 347 81 L 303 88  315 108  187 152  129 69  225 25  329 20  L 347 81  Z" stroke="rgba(228,96,220,.2)" stroke-width="1px" fill="rgba(228,96,220,.2)"/><path d=" M 968 474 L 904 501  863 359  892 306  893 308  953 373  1012 350  L 968 474  Z" stroke="rgba(199,93,176,.2)" stroke-width="1px" fill="rgba(199,93,176,.2)"/><path d=" M 151 154 L 116 116  35 122  100 77  67 49  94 53  225 25  L 151 154  Z" stroke="rgba(87,129,159,.2)" stroke-width="1px" fill="rgba(87,129,159,.2)"/><path d=" M 524 258 L 561 221  514 201  561 195  515 185  526 175  649 163  L 524 258  Z" stroke="rgba(116,57,237,.2)" stroke-width="1px" fill="rgba(116,57,237,.2)"/><path d=" M 531 259 L 524 258  469 164  515 185  526 175  514 201  561 195  L 531 259  Z" stroke="rgba(104,182,191,.2)" stroke-width="1px" fill="rgba(104,182,191,.2)"/><path d=" M 315 108 L 303 88  347 81  329 20  403 23  395 65  415 81  L 315 108  Z" stroke="rgba(105,163,101,.2)" stroke-width="1px" fill="rgba(105,163,101,.2)"/><path d=" M 649 163 L 586 196  561 195  526 175  715 20  716 54  755 49  L 649 163  Z" stroke="rgba(112,83,75,.2)" stroke-width="1px" fill="rgba(112,83,75,.2)"/><path d=" M 1061 510 L 968 474  977 451  1064 384  1104 437  1130 340  1169 439  L 1061 510  Z" stroke="rgba(119,182,218,.2)" stroke-width="1px" fill="rgba(119,182,218,.2)"/><path d=" M 918 519 L 853 481  833 499  827 505  767 508  770 438  863 359  L 918 519  Z" stroke="rgba(203,236,129,.2)" stroke-width="1px" fill="rgba(203,236,129,.2)"/><path d=" M 1130 340 L 1079 311  1109 275  1166 285  1085 217  1088 199  1181 157  L 1130 340  Z" stroke="rgba(180,136,88,.2)" stroke-width="1px" fill="rgba(180,136,88,.2)"/><path d=" M 379 178 L 335 258  284 238  303 88  315 108  347 81  371 87  L 379 178  Z" stroke="rgba(250,127,63,.2)" stroke-width="1px" fill="rgba(250,127,63,.2)"/><path d=" M 1022 110 L 973 149  902 100  997 28  1084 39  1050 50  1106 66  L 1022 110  Z" stroke="rgba(201,163,220,.2)" stroke-width="1px" fill="rgba(201,163,220,.2)"/><path d=" M 1079 311 L 1012 350  964 297  933 277  971 200  1088 199  1085 217  L 1079 311  Z" stroke="rgba(85,227,129,.2)" stroke-width="1px" fill="rgba(85,227,129,.2)"/><path d=" M 808 346 L 837 315  830 281  876 315  883 303  892 306  893 308  L 808 346  Z" stroke="rgba(157,101,169,.2)" stroke-width="1px" fill="rgba(157,101,169,.2)"/><path d=" M 233 478 L 219 456  219 430  194 357  242 332  276 399  309 402  L 233 478  Z" stroke="rgba(83,104,55,.2)" stroke-width="1px" fill="rgba(83,104,55,.2)"/><path d=" M 971 200 L 902 100  997 28  990 69  1050 50  1022 110  1045 131  L 971 200  Z" stroke="rgba(135,214,81,.2)" stroke-width="1px" fill="rgba(135,214,81,.2)"/><path d=" M 918 519 L 827 505  719 516  767 508  770 438  835 469  853 481  L 918 519  Z" stroke="rgba(226,136,88,.2)" stroke-width="1px" fill="rgba(226,136,88,.2)"/><path d=" M 124 217 L 65 247  39 172  116 116  151 154  187 152  213 177  L 124 217  Z" stroke="rgba(87,83,205,.2)" stroke-width="1px" fill="rgba(87,83,205,.2)"/><path d=" M 473 395 L 524 258  531 259  561 221  561 195  586 196  658 286  L 473 395  Z" stroke="rgba(123,176,133,.2)" stroke-width="1px" fill="rgba(123,176,133,.2)"/><path d=" M 763 301 L 830 281  837 315  883 303  892 306  876 315  893 308  L 763 301  Z" stroke="rgba(201,79,135,.2)" stroke-width="1px" fill="rgba(201,79,135,.2)"/><path d=" M 918 519 L 968 474  977 451  1064 384  1104 437  1102 465  1169 439  L 918 519  Z" stroke="rgba(144,129,153,.2)" stroke-width="1px" fill="rgba(144,129,153,.2)"/><path d=" M 151 154 L 128 195  35 122  67 49  100 77  94 53  129 69  L 151 154  Z" stroke="rgba(58,108,213,.2)" stroke-width="1px" fill="rgba(58,108,213,.2)"/><path d=" M 1102 465 L 1065 520  1061 510  977 451  1012 350  1064 384  1130 340  L 1102 465  Z" stroke="rgba(185,81,87,.2)" stroke-width="1px" fill="rgba(185,81,87,.2)"/><path d=" M 767 508 L 701 472  719 516  673 521  637 494  582 510  580 394  L 767 508  Z" stroke="rgba(158,160,161,.2)" stroke-width="1px" fill="rgba(158,160,161,.2)"/><path d=" M 767 508 L 719 516  673 521  637 494  582 510  678 435  770 438  L 767 508  Z" stroke="rgba(167,74,197,.2)" stroke-width="1px" fill="rgba(167,74,197,.2)"/><path d=" M 561 195 L 561 221  524 258  514 201  492 210  515 185  469 164  L 561 195  Z" stroke="rgba(151,194,185,.2)" stroke-width="1px" fill="rgba(151,194,185,.2)"/><path d=" M 365 177 L 354 177  303 88  329 20  347 81  395 65  371 87  L 365 177  Z" stroke="rgba(181,97,161,.2)" stroke-width="1px" fill="rgba(181,97,161,.2)"/><path d=" M 968 474 L 918 519  904 501  939 401  953 373  1012 350  1064 384  L 968 474  Z" stroke="rgba(87,226,113,.2)" stroke-width="1px" fill="rgba(87,226,113,.2)"/><path d=" M 1088 199 L 1123 99  1106 66  1084 39  1140 58  1165 39  1197 39  L 1088 199  Z" stroke="rgba(179,251,223,.2)" stroke-width="1px" fill="rgba(179,251,223,.2)"/><path d=" M 586 196 L 614 73  715 20  716 54  750 10  755 49  794 65  L 586 196  Z" stroke="rgba(71,233,125,.2)" stroke-width="1px" fill="rgba(71,233,125,.2)"/><path d=" M 1102 465 L 977 451  953 373  1012 350  1079 311  1109 275  1130 340  L 1102 465  Z" stroke="rgba(124,179,121,.2)" stroke-width="1px" fill="rgba(124,179,121,.2)"/><path d=" M 242 332 L 194 357  146 234  124 217  213 177  284 238  264 247  L 242 332  Z" stroke="rgba(233,211,153,.2)" stroke-width="1px" fill="rgba(233,211,153,.2)"/><path d=" M 1181 157 L 1123 99  1106 66  1050 50  1084 39  1165 39  1197 39  L 1181 157  Z" stroke="rgba(57,146,221,.2)" stroke-width="1px" fill="rgba(57,146,221,.2)"/><path d=" M 567 320 L 531 259  561 221  561 195  586 196  649 163  735 248  L 567 320  Z" stroke="rgba(196,198,145,.2)" stroke-width="1px" fill="rgba(196,198,145,.2)"/><path d=" M 524 258 L 492 210  514 201  515 185  526 175  561 195  586 196  L 524 258  Z" stroke="rgba(133,225,148,.2)" stroke-width="1px" fill="rgba(133,225,148,.2)"/><path d=" M 863 359 L 808 346  763 301  830 281  883 303  892 306  893 308  L 863 359  Z" stroke="rgba(202,192,206,.2)" stroke-width="1px" fill="rgba(202,192,206,.2)"/><path d=" M 138 336 L 65 247  124 217  128 195  151 154  187 152  213 177  L 138 336  Z" stroke="rgba(118,115,212,.2)" stroke-width="1px" fill="rgba(118,115,212,.2)"/><path d=" M 39 270 L 27 196  21 170  39 172  128 195  124 217  146 234  L 39 270  Z" stroke="rgba(63,163,247,.2)" stroke-width="1px" fill="rgba(63,163,247,.2)"/><path d=" M 1104 437 L 1064 384  1079 311  1109 275  1166 285  1177 289  1193 295  L 1104 437  Z" stroke="rgba(117,220,217,.2)" stroke-width="1px" fill="rgba(117,220,217,.2)"/><path d=" M 883 303 L 876 315  837 315  830 281  763 301  735 248  843 216  L 883 303  Z" stroke="rgba(159,97,219,.2)" stroke-width="1px" fill="rgba(159,97,219,.2)"/><path d=" M 973 149 L 990 69  997 28  1050 50  1084 39  1106 66  1123 99  L 973 149  Z" stroke="rgba(104,102,241,.2)" stroke-width="1px" fill="rgba(104,102,241,.2)"/><path d=" M 335 258 L 284 238  354 177  315 108  347 81  371 87  412 88  L 335 258  Z" stroke="rgba(236,156,71,.2)" stroke-width="1px" fill="rgba(236,156,71,.2)"/><path d=" M 412 88 L 371 87  315 108  303 88  329 20  403 23  395 65  L 412 88  Z" stroke="rgba(217,111,241,.2)" stroke-width="1px" fill="rgba(217,111,241,.2)"/><path d=" M 233 478 L 255 434  219 456  219 430  194 357  242 332  339 341  L 233 478  Z" stroke="rgba(252,153,189,.2)" stroke-width="1px" fill="rgba(252,153,189,.2)"/><path d=" M 412 444 L 407 435  418 349  309 402  363 343  339 341  335 258  L 412 444  Z" stroke="rgba(204,156,174,.2)" stroke-width="1px" fill="rgba(204,156,174,.2)"/><path d=" M 27 196 L 21 170  67 49  94 53  100 77  129 69  116 116  L 27 196  Z" stroke="rgba(138,150,139,.2)" stroke-width="1px" fill="rgba(138,150,139,.2)"/><path d=" M 276 399 L 242 332  194 357  205 266  264 247  284 238  335 258  L 276 399  Z" stroke="rgba(74,154,100,.2)" stroke-width="1px" fill="rgba(74,154,100,.2)"/><path d=" M 128 195 L 124 217  65 247  27 196  39 270  35 122  116 116  L 128 195  Z" stroke="rgba(247,79,114,.2)" stroke-width="1px" fill="rgba(247,79,114,.2)"/><path d=" M 242 332 L 243 309  264 247  205 266  213 177  354 177  365 177  L 242 332  Z" stroke="rgba(153,142,94,.2)" stroke-width="1px" fill="rgba(153,142,94,.2)"/><path d=" M 151 154 L 116 116  39 172  35 122  67 49  94 53  129 69  L 151 154  Z" stroke="rgba(83,249,189,.2)" stroke-width="1px" fill="rgba(83,249,189,.2)"/><path d=" M 1064 384 L 1012 350  1044 267  1085 217  1109 275  1166 285  1177 289  L 1064 384  Z" stroke="rgba(117,148,248,.2)" stroke-width="1px" fill="rgba(117,148,248,.2)"/><path d=" M 719 516 L 673 521  582 510  503 460  580 394  678 435  701 472  L 719 516  Z" stroke="rgba(105,150,122,.2)" stroke-width="1px" fill="rgba(105,150,122,.2)"/><path d=" M 1106 66 L 1123 99  1045 131  1022 110  990 69  997 28  1084 39  L 1106 66  Z" stroke="rgba(252,168,179,.2)" stroke-width="1px" fill="rgba(252,168,179,.2)"/><path d=" M 561 221 L 531 259  524 258  492 210  514 201  515 185  526 175  L 561 221  Z" stroke="rgba(228,200,246,.2)" stroke-width="1px" fill="rgba(228,200,246,.2)"/><path d=" M 129 69 L 100 77  151 154  116 116  39 172  21 170  35 122  L 129 69  Z" stroke="rgba(60,97,210,.2)" stroke-width="1px" fill="rgba(60,97,210,.2)"/><path d=" M 126 478 L 136 438  151 414  194 357  219 430  276 399  255 434  L 126 478  Z" stroke="rgba(208,55,167,.2)" stroke-width="1px" fill="rgba(208,55,167,.2)"/><path d=" M 19 496 L 22 487  37 471  136 438  151 414  219 430  219 456  L 19 496  Z" stroke="rgba(188,157,59,.2)" stroke-width="1px" fill="rgba(188,157,59,.2)"/><path d=" M 1177 289 L 1193 295  1130 340  1079 311  1044 267  1085 217  1088 199  L 1177 289  Z" stroke="rgba(253,176,250,.2)" stroke-width="1px" fill="rgba(253,176,250,.2)"/><path d=" M 1044 267 L 964 297  933 277  973 149  1022 110  1045 131  1088 199  L 1044 267  Z" stroke="rgba(121,173,240,.2)" stroke-width="1px" fill="rgba(121,173,240,.2)"/><path d=" M 126 478 L 37 471  64 373  138 336  151 414  194 357  219 430  L 126 478  Z" stroke="rgba(183,221,117,.2)" stroke-width="1px" fill="rgba(183,221,117,.2)"/><path d=" M 233 478 L 219 456  136 438  151 414  194 357  276 399  309 402  L 233 478  Z" stroke="rgba(218,249,90,.2)" stroke-width="1px" fill="rgba(218,249,90,.2)"/><path d=" M 1085 217 L 973 149  1022 110  990 69  1050 50  1106 66  1123 99  L 1085 217  Z" stroke="rgba(200,171,56,.2)" stroke-width="1px" fill="rgba(200,171,56,.2)"/><path d=" M 582 510 L 495 516  431 508  412 444  407 435  473 395  580 394  L 582 510  Z" stroke="rgba(251,164,236,.2)" stroke-width="1px" fill="rgba(251,164,236,.2)"/><path d=" M 339 341 L 243 309  264 247  284 238  354 177  365 177  379 178  L 339 341  Z" stroke="rgba(202,67,210,.2)" stroke-width="1px" fill="rgba(202,67,210,.2)"/><path d=" M 977 451 L 939 401  953 373  933 277  964 297  1044 267  1079 311  L 977 451  Z" stroke="rgba(165,106,137,.2)" stroke-width="1px" fill="rgba(165,106,137,.2)"/><path d=" M 146 234 L 65 247  39 172  128 195  151 154  187 152  213 177  L 146 234  Z" stroke="rgba(206,246,120,.2)" stroke-width="1px" fill="rgba(206,246,120,.2)"/><path d=" M 1088 199 L 1123 99  1106 66  1140 58  1165 39  1197 39  1192 108  L 1088 199  Z" stroke="rgba(240,121,57,.2)" stroke-width="1px" fill="rgba(240,121,57,.2)"/><path d=" M 431 508 L 412 444  407 435  418 349  423 340  567 320  580 394  L 431 508  Z" stroke="rgba(212,78,180,.2)" stroke-width="1px" fill="rgba(212,78,180,.2)"/><path d=" M 893 308 L 863 359  876 315  837 315  830 281  933 277  964 297  L 893 308  Z" stroke="rgba(66,85,234,.2)" stroke-width="1px" fill="rgba(66,85,234,.2)"/><path d=" M 19 496 L 22 487  15 434  26 367  64 373  151 414  136 438  L 19 496  Z" stroke="rgba(118,178,96,.2)" stroke-width="1px" fill="rgba(118,178,96,.2)"/><path d=" M 902 100 L 699 94  649 163  614 73  715 20  750 10  755 49  L 902 100  Z" stroke="rgba(62,224,221,.2)" stroke-width="1px" fill="rgba(62,224,221,.2)"/><path d=" M 151 414 L 136 438  64 373  63 333  146 234  205 266  242 332  L 151 414  Z" stroke="rgba(125,183,56,.2)" stroke-width="1px" fill="rgba(125,183,56,.2)"/><path d=" M 309 402 L 276 399  219 430  194 357  205 266  243 309  264 247  L 309 402  Z" stroke="rgba(97,110,161,.2)" stroke-width="1px" fill="rgba(97,110,161,.2)"/><path d=" M 418 349 L 309 402  276 399  242 332  243 309  335 258  423 340  L 418 349  Z" stroke="rgba(252,67,237,.2)" stroke-width="1px" fill="rgba(252,67,237,.2)"/><path d=" M 37 471 L 22 487  15 434  39 270  65 247  63 333  138 336  L 37 471  Z" stroke="rgba(216,199,73,.2)" stroke-width="1px" fill="rgba(216,199,73,.2)"/><path d=" M 354 177 L 243 45  225 25  329 20  395 65  347 81  371 87  L 354 177  Z" stroke="rgba(101,160,74,.2)" stroke-width="1px" fill="rgba(101,160,74,.2)"/><path d=" M 146 234 L 124 217  128 195  116 116  100 77  129 69  187 152  L 146 234  Z" stroke="rgba(209,210,140,.2)" stroke-width="1px" fill="rgba(209,210,140,.2)"/><path d=" M 146 234 L 124 217  128 195  151 154  116 116  100 77  129 69  L 146 234  Z" stroke="rgba(237,169,80,.2)" stroke-width="1px" fill="rgba(237,169,80,.2)"/><path d=" M 658 286 L 561 221  586 196  561 195  526 175  614 73  699 94  L 658 286  Z" stroke="rgba(125,199,225,.2)" stroke-width="1px" fill="rgba(125,199,225,.2)"/><path d=" M 126 478 L 37 471  22 487  19 496  26 367  63 333  64 373  L 126 478  Z" stroke="rgba(247,252,204,.2)" stroke-width="1px" fill="rgba(247,252,204,.2)"/><path d=" M 15 434 L 26 367  64 373  37 471  151 414  136 438  126 478  L 15 434  Z" stroke="rgba(73,134,137,.2)" stroke-width="1px" fill="rgba(73,134,137,.2)"/><path d=" M 233 478 L 219 456  255 434  276 399  309 402  407 435  412 444  L 233 478  Z" stroke="rgba(71,75,60,.2)" stroke-width="1px" fill="rgba(71,75,60,.2)"/><path d=" M 124 217 L 65 247  39 270  27 196  21 170  35 122  116 116  L 124 217  Z" stroke="rgba(192,219,162,.2)" stroke-width="1px" fill="rgba(192,219,162,.2)"/><path d=" M 883 303 L 893 308  876 315  837 315  808 346  821 222  843 216  L 883 303  Z" stroke="rgba(157,121,87,.2)" stroke-width="1px" fill="rgba(157,121,87,.2)"/><path d=" M 833 499 L 853 481  835 469  904 501  939 401  977 451  968 474  L 833 499  Z" stroke="rgba(126,152,238,.2)" stroke-width="1px" fill="rgba(126,152,238,.2)"/><path d=" M 412 444 L 407 435  309 402  339 341  363 343  335 258  423 340  L 412 444  Z" stroke="rgba(167,189,165,.2)" stroke-width="1px" fill="rgba(167,189,165,.2)"/><path d=" M 495 516 L 431 508  333 504  407 435  418 349  423 340  473 395  L 495 516  Z" stroke="rgba(200,131,72,.2)" stroke-width="1px" fill="rgba(200,131,72,.2)"/><path d=" M 853 481 L 833 499  827 505  767 508  719 516  701 472  678 435  L 853 481  Z" stroke="rgba(234,104,134,.2)" stroke-width="1px" fill="rgba(234,104,134,.2)"/><path d=" M 354 177 L 365 177  315 108  347 81  371 87  412 88  469 164  L 354 177  Z" stroke="rgba(231,225,160,.2)" stroke-width="1px" fill="rgba(231,225,160,.2)"/><path d=" M 412 88 L 371 87  315 108  347 81  303 88  329 20  403 23  L 412 88  Z" stroke="rgba(206,200,237,.2)" stroke-width="1px" fill="rgba(206,200,237,.2)"/><path d=" M 837 315 L 808 346  763 301  658 286  649 163  821 222  843 216  L 837 315  Z" stroke="rgba(95,132,157,.2)" stroke-width="1px" fill="rgba(95,132,157,.2)"/><path d=" M 379 178 L 412 88  315 108  371 87  347 81  395 65  403 23  L 379 178  Z" stroke="rgba(194,216,219,.2)" stroke-width="1px" fill="rgba(194,216,219,.2)"/><path d=" M 827 505 L 833 499  853 481  835 469  939 401  977 451  968 474  L 827 505  Z" stroke="rgba(188,240,147,.2)" stroke-width="1px" fill="rgba(188,240,147,.2)"/><path d=" M 673 521 L 495 516  503 460  580 394  678 435  701 472  637 494  L 673 521  Z" stroke="rgba(155,222,130,.2)" stroke-width="1px" fill="rgba(155,222,130,.2)"/><path d=" M 264 247 L 205 266  146 234  124 217  128 195  151 154  187 152  L 264 247  Z" stroke="rgba(58,72,96,.2)" stroke-width="1px" fill="rgba(58,72,96,.2)"/><path d=" M 524 258 L 492 210  514 201  515 185  561 195  561 221  586 196  L 524 258  Z" stroke="rgba(219,220,119,.2)" stroke-width="1px" fill="rgba(219,220,119,.2)"/><path d=" M 1079 311 L 1085 217  1044 267  1022 110  1045 131  1123 99  1181 157  L 1079 311  Z" stroke="rgba(167,194,151,.2)" stroke-width="1px" fill="rgba(167,194,151,.2)"/><path d=" M 794 65 L 755 49  716 54  699 94  649 163  614 73  750 10  L 794 65  Z" stroke="rgba(155,234,180,.2)" stroke-width="1px" fill="rgba(155,234,180,.2)"/><path d=" M 1065 520 L 918 519  904 501  853 481  939 401  953 373  977 451  L 1065 520  Z" stroke="rgba(150,175,88,.2)" stroke-width="1px" fill="rgba(150,175,88,.2)"/><path d=" M 876 315 L 837 315  830 281  883 303  892 306  933 277  964 297  L 876 315  Z" stroke="rgba(146,120,140,.2)" stroke-width="1px" fill="rgba(146,120,140,.2)"/><path d=" M 26 367 L 22 487  64 373  37 471  151 414  136 438  126 478  L 26 367  Z" stroke="rgba(124,130,174,.2)" stroke-width="1px" fill="rgba(124,130,174,.2)"/><path d=" M 794 65 L 755 49  699 94  649 163  716 54  614 73  715 20  L 794 65  Z" stroke="rgba(201,226,119,.2)" stroke-width="1px" fill="rgba(201,226,119,.2)"/><path d=" M 255 434 L 219 430  151 414  138 336  205 266  243 309  242 332  L 255 434  Z" stroke="rgba(149,170,235,.2)" stroke-width="1px" fill="rgba(149,170,235,.2)"/><path d=" M 412 444 L 431 508  333 504  363 343  418 349  423 340  473 395  L 412 444  Z" stroke="rgba(241,86,62,.2)" stroke-width="1px" fill="rgba(241,86,62,.2)"/><path d=" M 953 373 L 876 315  893 308  892 306  883 303  933 277  1044 267  L 953 373  Z" stroke="rgba(75,161,79,.2)" stroke-width="1px" fill="rgba(75,161,79,.2)"/><path d=" M 561 195 L 561 221  524 258  514 201  492 210  469 164  526 175  L 561 195  Z" stroke="rgba(146,112,72,.2)" stroke-width="1px" fill="rgba(146,112,72,.2)"/></g>
            <g id="points"/>
          </g>
        </svg>