<svg xmlns="http://www.w3.org/2000/svg" width="360" height="336" preserveAspectRatio="xMidYMid meet">
          <iframe id="bg" x="0" y="0" style="fill: #1e2126" width="360" height="336"/>
          <g id="main">
            <g id="polygons"><path d=" M 148 324 L 150 314  174 290  135 298  131 273  166 280  176 240  187 238  220 269  L 148 324  Z" stroke="rgba(202,70,160,.2)" stroke-width="1px" fill="rgba(202,70,160,.2)"/><path d=" M 244 286 L 238 254  234 238  250 224  256 218  289 246  326 225  325 239  340 247  L 244 286  Z" stroke="rgba(240,134,186,.2)" stroke-width="1px" fill="rgba(240,134,186,.2)"/><path d=" M 247 70 L 234 26  225 91  169 59  171 51  204 26  153 36  192 22  285 12  L 247 70  Z" stroke="rgba(64,82,122,.2)" stroke-width="1px" fill="rgba(64,82,122,.2)"/><path d=" M 152 93 L 121 103  117 69  117 67  88 93  109 45  111 45  153 36  171 51  L 152 93  Z" stroke="rgba(69,170,180,.2)" stroke-width="1px" fill="rgba(69,170,180,.2)"/><path d=" M 117 69 L 117 67  127 52  109 45  111 45  153 36  171 51  192 22  204 26  L 117 69  Z" stroke="rgba(217,226,78,.2)" stroke-width="1px" fill="rgba(217,226,78,.2)"/><path d=" M 97 167 L 101 179  90 163  81 188  70 178  62 188  81 127  115 129  132 137  L 97 167  Z" stroke="rgba(74,70,191,.2)" stroke-width="1px" fill="rgba(74,70,191,.2)"/><path d=" M 131 273 L 150 314  135 298  138 322  91 311  91 308  91 213  109 216  122 212  L 131 273  Z" stroke="rgba(202,114,64,.2)" stroke-width="1px" fill="rgba(202,114,64,.2)"/><path d=" M 169 59 L 152 93  117 69  117 67  127 52  111 45  109 45  192 22  204 26  L 169 59  Z" stroke="rgba(190,57,160,.2)" stroke-width="1px" fill="rgba(190,57,160,.2)"/><path d=" M 286 254 L 238 254  220 269  250 224  234 238  193 225  222 189  233 173  298 184  L 286 254  Z" stroke="rgba(232,223,178,.2)" stroke-width="1px" fill="rgba(232,223,178,.2)"/><path d=" M 331 217 L 325 239  326 225  298 184  321 178  332 162  335 153  334 185  333 199  L 331 217  Z" stroke="rgba(195,140,126,.2)" stroke-width="1px" fill="rgba(195,140,126,.2)"/><path d=" M 187 238 L 176 240  131 273  109 216  91 213  122 212  163 159  193 171  193 199  L 187 238  Z" stroke="rgba(139,88,144,.2)" stroke-width="1px" fill="rgba(139,88,144,.2)"/><path d=" M 121 103 L 88 93  74 75  109 45  111 45  117 67  127 52  153 36  169 59  L 121 103  Z" stroke="rgba(62,60,131,.2)" stroke-width="1px" fill="rgba(62,60,131,.2)"/><path d=" M 148 324 L 150 314  138 322  135 298  131 273  166 280  176 240  179 285  220 269  L 148 324  Z" stroke="rgba(85,115,148,.2)" stroke-width="1px" fill="rgba(85,115,148,.2)"/><path d=" M 152 93 L 117 69  117 67  127 52  109 45  111 45  153 36  192 22  204 26  L 152 93  Z" stroke="rgba(201,93,251,.2)" stroke-width="1px" fill="rgba(201,93,251,.2)"/><path d=" M 121 103 L 117 69  88 93  74 75  109 45  111 45  127 52  153 36  169 59  L 121 103  Z" stroke="rgba(231,190,119,.2)" stroke-width="1px" fill="rgba(231,190,119,.2)"/><path d=" M 41 325 L 10 232  26 263  42 219  113 265  49 312  135 298  91 308  91 311  L 41 325  Z" stroke="rgba(249,239,80,.2)" stroke-width="1px" fill="rgba(249,239,80,.2)"/><path d=" M 42 102 L 81 127  26 69  39 54  36 71  69 39  70 38  74 75  88 93  L 42 102  Z" stroke="rgba(101,107,252,.2)" stroke-width="1px" fill="rgba(101,107,252,.2)"/><path d=" M 321 178 L 298 184  222 189  233 173  270 122  277 112  277 134  287 100  335 153  L 321 178  Z" stroke="rgba(230,95,140,.2)" stroke-width="1px" fill="rgba(230,95,140,.2)"/><path d=" M 317 308 L 301 324  304 306  286 254  289 246  325 239  326 225  331 217  340 247  L 317 308  Z" stroke="rgba(127,123,232,.2)" stroke-width="1px" fill="rgba(127,123,232,.2)"/><path d=" M 287 100 L 277 134  277 112  270 122  225 91  247 70  234 26  233 15  285 12  L 287 100  Z" stroke="rgba(152,147,57,.2)" stroke-width="1px" fill="rgba(152,147,57,.2)"/><path d=" M 179 285 L 174 290  166 280  131 273  151 215  193 199  193 225  187 238  234 238  L 179 285  Z" stroke="rgba(168,240,129,.2)" stroke-width="1px" fill="rgba(168,240,129,.2)"/><path d=" M 227 293 L 174 290  179 285  176 240  187 238  193 225  234 238  250 224  238 254  L 227 293  Z" stroke="rgba(154,207,228,.2)" stroke-width="1px" fill="rgba(154,207,228,.2)"/><path d=" M 325 239 L 326 225  289 246  298 184  321 178  331 205  332 162  334 185  333 199  L 325 239  Z" stroke="rgba(97,99,219,.2)" stroke-width="1px" fill="rgba(97,99,219,.2)"/><path d=" M 148 324 L 138 322  41 325  18 320  49 312  91 308  113 265  131 273  135 298  L 148 324  Z" stroke="rgba(182,170,117,.2)" stroke-width="1px" fill="rgba(182,170,117,.2)"/><path d=" M 238 254 L 244 286  227 293  220 269  187 238  193 225  222 189  256 218  250 224  L 238 254  Z" stroke="rgba(88,88,83,.2)" stroke-width="1px" fill="rgba(88,88,83,.2)"/><path d=" M 317 308 L 304 306  286 254  289 246  326 277  325 239  326 225  331 217  340 247  L 317 308  Z" stroke="rgba(84,56,68,.2)" stroke-width="1px" fill="rgba(84,56,68,.2)"/><path d=" M 286 254 L 238 254  220 269  234 238  193 225  193 199  222 189  233 173  256 218  L 286 254  Z" stroke="rgba(65,228,201,.2)" stroke-width="1px" fill="rgba(65,228,201,.2)"/><path d=" M 333 199 L 331 205  331 217  326 225  325 239  298 184  276 155  335 153  332 162  L 333 199  Z" stroke="rgba(169,221,99,.2)" stroke-width="1px" fill="rgba(169,221,99,.2)"/><path d=" M 326 277 L 286 254  289 246  325 239  326 225  331 217  331 205  333 199  334 185  L 326 277  Z" stroke="rgba(225,188,59,.2)" stroke-width="1px" fill="rgba(225,188,59,.2)"/><path d=" M 247 70 L 225 91  169 59  171 51  153 36  204 26  192 22  233 15  285 12  L 247 70  Z" stroke="rgba(82,170,64,.2)" stroke-width="1px" fill="rgba(82,170,64,.2)"/><path d=" M 222 189 L 193 199  151 215  101 179  97 167  104 153  115 129  132 137  195 151  L 222 189  Z" stroke="rgba(199,59,168,.2)" stroke-width="1px" fill="rgba(199,59,168,.2)"/><path d=" M 332 162 L 321 178  298 184  276 155  233 173  225 91  270 122  277 112  287 100  L 332 162  Z" stroke="rgba(197,235,232,.2)" stroke-width="1px" fill="rgba(197,235,232,.2)"/><path d=" M 88 93 L 46 101  42 102  29 94  26 69  13 15  39 54  70 38  69 39  L 88 93  Z" stroke="rgba(80,108,62,.2)" stroke-width="1px" fill="rgba(80,108,62,.2)"/><path d=" M 10 232 L 26 263  49 312  113 265  131 273  91 308  135 298  91 311  138 322  L 10 232  Z" stroke="rgba(176,68,119,.2)" stroke-width="1px" fill="rgba(176,68,119,.2)"/><path d=" M 81 188 L 62 188  70 178  90 163  81 127  90 148  115 129  104 153  132 137  L 81 188  Z" stroke="rgba(170,90,251,.2)" stroke-width="1px" fill="rgba(170,90,251,.2)"/><path d=" M 70 38 L 69 39  74 75  39 54  36 71  46 101  42 102  26 69  29 94  L 70 38  Z" stroke="rgba(175,89,216,.2)" stroke-width="1px" fill="rgba(175,89,216,.2)"/><path d=" M 222 189 L 193 225  193 199  193 171  151 215  163 159  132 137  152 93  225 91  L 222 189  Z" stroke="rgba(199,197,239,.2)" stroke-width="1px" fill="rgba(199,197,239,.2)"/><path d=" M 204 26 L 247 70  225 91  152 93  169 59  171 51  127 52  153 36  233 15  L 204 26  Z" stroke="rgba(111,186,74,.2)" stroke-width="1px" fill="rgba(111,186,74,.2)"/><path d=" M 148 324 L 138 322  91 311  91 308  113 265  131 273  166 280  179 285  174 290  L 148 324  Z" stroke="rgba(127,216,132,.2)" stroke-width="1px" fill="rgba(127,216,132,.2)"/><path d=" M 115 129 L 121 103  117 69  117 67  111 45  127 52  153 36  171 51  169 59  L 115 129  Z" stroke="rgba(91,111,223,.2)" stroke-width="1px" fill="rgba(91,111,223,.2)"/><path d=" M 333 199 L 331 217  331 205  325 239  326 225  298 184  321 178  332 162  335 153  L 333 199  Z" stroke="rgba(124,138,89,.2)" stroke-width="1px" fill="rgba(124,138,89,.2)"/><path d=" M 301 324 L 227 293  179 285  220 269  234 238  238 254  250 224  289 246  286 254  L 301 324  Z" stroke="rgba(148,195,244,.2)" stroke-width="1px" fill="rgba(148,195,244,.2)"/><path d=" M 46 101 L 42 102  36 71  39 54  69 39  70 38  109 45  117 67  117 69  L 46 101  Z" stroke="rgba(83,142,124,.2)" stroke-width="1px" fill="rgba(83,142,124,.2)"/><path d=" M 109 216 L 91 213  42 219  90 148  70 178  90 163  104 153  97 167  101 179  L 109 216  Z" stroke="rgba(78,176,154,.2)" stroke-width="1px" fill="rgba(78,176,154,.2)"/><path d=" M 222 189 L 193 225  193 199  187 238  176 240  151 215  163 159  132 137  195 151  L 222 189  Z" stroke="rgba(237,199,108,.2)" stroke-width="1px" fill="rgba(237,199,108,.2)"/><path d=" M 91 311 L 91 308  113 265  135 298  131 273  150 314  166 280  174 290  179 285  L 91 311  Z" stroke="rgba(209,209,137,.2)" stroke-width="1px" fill="rgba(209,209,137,.2)"/><path d=" M 109 45 L 117 67  117 69  88 93  74 75  36 71  26 69  39 54  70 38  L 109 45  Z" stroke="rgba(85,228,122,.2)" stroke-width="1px" fill="rgba(85,228,122,.2)"/><path d=" M 238 254 L 220 269  179 285  174 290  166 280  176 240  151 215  193 199  193 225  L 238 254  Z" stroke="rgba(187,241,152,.2)" stroke-width="1px" fill="rgba(187,241,152,.2)"/><path d=" M 109 216 L 91 213  62 188  70 178  90 148  90 163  104 153  97 167  101 179  L 109 216  Z" stroke="rgba(55,239,229,.2)" stroke-width="1px" fill="rgba(55,239,229,.2)"/><path d=" M 277 134 L 298 184  276 155  233 173  225 91  247 70  291 52  277 112  287 100  L 277 134  Z" stroke="rgba(108,116,112,.2)" stroke-width="1px" fill="rgba(108,116,112,.2)"/><path d=" M 41 325 L 18 320  10 232  26 263  113 265  131 273  135 298  91 308  91 311  L 41 325  Z" stroke="rgba(62,159,187,.2)" stroke-width="1px" fill="rgba(62,159,187,.2)"/><path d=" M 113 265 L 42 219  62 188  70 178  81 188  90 163  97 167  101 179  122 212  L 113 265  Z" stroke="rgba(141,115,160,.2)" stroke-width="1px" fill="rgba(141,115,160,.2)"/><path d=" M 179 285 L 166 280  187 238  220 269  234 238  238 254  250 224  286 254  244 286  L 179 285  Z" stroke="rgba(162,235,131,.2)" stroke-width="1px" fill="rgba(162,235,131,.2)"/><path d=" M 238 254 L 220 269  187 238  176 240  151 215  193 171  193 199  222 189  250 224  L 238 254  Z" stroke="rgba(233,201,238,.2)" stroke-width="1px" fill="rgba(233,201,238,.2)"/><path d=" M 277 112 L 270 122  277 134  195 151  169 59  171 51  204 26  234 26  247 70  L 277 112  Z" stroke="rgba(99,238,197,.2)" stroke-width="1px" fill="rgba(99,238,197,.2)"/><path d=" M 244 286 L 227 293  220 269  187 238  193 225  234 238  250 224  256 218  289 246  L 244 286  Z" stroke="rgba(76,253,159,.2)" stroke-width="1px" fill="rgba(76,253,159,.2)"/><path d=" M 174 290 L 148 324  150 314  138 322  135 298  131 273  113 265  176 240  187 238  L 174 290  Z" stroke="rgba(229,137,63,.2)" stroke-width="1px" fill="rgba(229,137,63,.2)"/><path d=" M 291 52 L 287 100  277 112  247 70  225 91  234 26  204 26  192 22  233 15  L 291 52  Z" stroke="rgba(160,200,74,.2)" stroke-width="1px" fill="rgba(160,200,74,.2)"/><path d=" M 115 129 L 81 127  42 102  46 101  74 75  109 45  111 45  117 67  117 69  L 115 129  Z" stroke="rgba(134,224,57,.2)" stroke-width="1px" fill="rgba(134,224,57,.2)"/><path d=" M 117 67 L 117 69  121 103  88 93  74 75  109 45  69 39  70 38  153 36  L 117 67  Z" stroke="rgba(234,219,207,.2)" stroke-width="1px" fill="rgba(234,219,207,.2)"/><path d=" M 81 188 L 91 213  42 219  62 188  81 127  90 148  90 163  104 153  97 167  L 81 188  Z" stroke="rgba(172,192,108,.2)" stroke-width="1px" fill="rgba(172,192,108,.2)"/><path d=" M 333 199 L 331 205  331 217  326 225  256 218  276 155  335 153  332 162  321 178  L 333 199  Z" stroke="rgba(175,198,55,.2)" stroke-width="1px" fill="rgba(175,198,55,.2)"/><path d=" M 317 308 L 301 324  227 293  244 286  286 254  289 246  325 239  340 247  326 277  L 317 308  Z" stroke="rgba(71,248,102,.2)" stroke-width="1px" fill="rgba(71,248,102,.2)"/><path d=" M 10 232 L 62 188  70 178  90 163  97 167  81 188  101 179  91 213  109 216  L 10 232  Z" stroke="rgba(244,204,71,.2)" stroke-width="1px" fill="rgba(244,204,71,.2)"/><path d=" M 179 285 L 174 290  150 314  148 324  135 298  138 322  91 311  91 308  113 265  L 179 285  Z" stroke="rgba(119,115,66,.2)" stroke-width="1px" fill="rgba(119,115,66,.2)"/><path d=" M 109 45 L 117 67  117 69  88 93  74 75  69 39  36 71  26 69  39 54  L 109 45  Z" stroke="rgba(171,176,240,.2)" stroke-width="1px" fill="rgba(171,176,240,.2)"/><path d=" M 97 167 L 81 188  70 178  90 163  90 148  81 127  121 103  115 129  132 137  L 97 167  Z" stroke="rgba(222,108,215,.2)" stroke-width="1px" fill="rgba(222,108,215,.2)"/><path d=" M 90 148 L 29 94  26 69  36 71  39 54  69 39  74 75  46 101  88 93  L 90 148  Z" stroke="rgba(87,196,146,.2)" stroke-width="1px" fill="rgba(87,196,146,.2)"/><path d=" M 326 277 L 286 254  289 246  321 178  326 225  334 185  331 205  333 199  331 217  L 326 277  Z" stroke="rgba(168,107,160,.2)" stroke-width="1px" fill="rgba(168,107,160,.2)"/><path d=" M 101 179 L 104 153  97 167  90 163  90 148  81 127  88 93  121 103  152 93  L 101 179  Z" stroke="rgba(198,94,132,.2)" stroke-width="1px" fill="rgba(198,94,132,.2)"/><path d=" M 101 179 L 97 167  90 163  104 153  90 148  81 127  115 129  121 103  152 93  L 101 179  Z" stroke="rgba(178,201,216,.2)" stroke-width="1px" fill="rgba(178,201,216,.2)"/><path d=" M 193 225 L 187 238  176 240  151 215  163 159  193 171  195 151  233 173  222 189  L 193 225  Z" stroke="rgba(216,168,77,.2)" stroke-width="1px" fill="rgba(216,168,77,.2)"/><path d=" M 115 129 L 104 153  90 148  81 127  88 93  117 69  117 67  127 52  152 93  L 115 129  Z" stroke="rgba(107,232,171,.2)" stroke-width="1px" fill="rgba(107,232,171,.2)"/><path d=" M 148 324 L 138 322  91 311  41 325  18 320  49 312  113 265  131 273  135 298  L 148 324  Z" stroke="rgba(183,116,155,.2)" stroke-width="1px" fill="rgba(183,116,155,.2)"/><path d=" M 101 179 L 81 188  62 188  70 178  81 127  90 148  115 129  104 153  132 137  L 101 179  Z" stroke="rgba(59,170,162,.2)" stroke-width="1px" fill="rgba(59,170,162,.2)"/><path d=" M 109 216 L 91 213  81 188  62 188  70 178  90 163  90 148  97 167  104 153  L 109 216  Z" stroke="rgba(170,91,206,.2)" stroke-width="1px" fill="rgba(170,91,206,.2)"/><path d=" M 127 52 L 117 67  117 69  121 103  88 93  74 75  69 39  70 38  153 36  L 127 52  Z" stroke="rgba(143,118,161,.2)" stroke-width="1px" fill="rgba(143,118,161,.2)"/><path d=" M 250 224 L 234 238  187 238  193 225  193 199  193 171  195 151  233 173  276 155  L 250 224  Z" stroke="rgba(216,69,143,.2)" stroke-width="1px" fill="rgba(216,69,143,.2)"/><path d=" M 36 71 L 88 93  46 101  42 102  29 94  13 15  39 54  70 38  69 39  L 36 71  Z" stroke="rgba(128,218,248,.2)" stroke-width="1px" fill="rgba(128,218,248,.2)"/><path d=" M 91 311 L 91 308  113 265  131 273  135 298  166 280  179 285  174 290  150 314  L 91 311  Z" stroke="rgba(155,180,137,.2)" stroke-width="1px" fill="rgba(155,180,137,.2)"/><path d=" M 90 148 L 42 102  29 94  26 69  36 71  39 54  69 39  74 75  88 93  L 90 148  Z" stroke="rgba(178,73,248,.2)" stroke-width="1px" fill="rgba(178,73,248,.2)"/><path d=" M 277 112 L 277 134  270 122  225 91  204 26  234 26  233 15  285 12  291 52  L 277 112  Z" stroke="rgba(205,194,227,.2)" stroke-width="1px" fill="rgba(205,194,227,.2)"/><path d=" M 88 93 L 46 101  42 102  36 71  29 94  26 69  13 15  70 38  69 39  L 88 93  Z" stroke="rgba(210,149,185,.2)" stroke-width="1px" fill="rgba(210,149,185,.2)"/><path d=" M 244 286 L 286 254  289 246  304 306  325 239  340 247  326 277  317 308  340 309  L 244 286  Z" stroke="rgba(78,197,59,.2)" stroke-width="1px" fill="rgba(78,197,59,.2)"/><path d=" M 301 324 L 304 306  244 286  286 254  289 246  326 225  325 239  326 277  340 247  L 301 324  Z" stroke="rgba(127,62,90,.2)" stroke-width="1px" fill="rgba(127,62,90,.2)"/><path d=" M 176 240 L 131 273  113 265  109 216  91 213  81 188  90 163  101 179  97 167  L 176 240  Z" stroke="rgba(153,210,76,.2)" stroke-width="1px" fill="rgba(153,210,76,.2)"/><path d=" M 333 199 L 331 217  331 205  332 162  321 178  298 184  276 155  277 134  335 87  L 333 199  Z" stroke="rgba(121,112,127,.2)" stroke-width="1px" fill="rgba(121,112,127,.2)"/><path d=" M 325 239 L 286 254  289 246  298 184  321 178  334 185  331 205  333 199  331 217  L 325 239  Z" stroke="rgba(171,215,58,.2)" stroke-width="1px" fill="rgba(171,215,58,.2)"/><path d=" M 333 199 L 331 217  331 205  326 225  321 178  298 184  276 155  277 134  335 153  L 333 199  Z" stroke="rgba(106,245,218,.2)" stroke-width="1px" fill="rgba(106,245,218,.2)"/><path d=" M 331 217 L 325 239  326 225  331 205  298 184  321 178  332 162  335 153  334 185  L 331 217  Z" stroke="rgba(116,120,69,.2)" stroke-width="1px" fill="rgba(116,120,69,.2)"/><path d=" M 91 308 L 91 311  49 312  41 325  18 320  10 232  42 219  62 188  91 213  L 91 308  Z" stroke="rgba(222,172,220,.2)" stroke-width="1px" fill="rgba(222,172,220,.2)"/><path d=" M 132 137 L 104 153  90 148  97 167  90 163  42 102  46 101  88 93  121 103  L 132 137  Z" stroke="rgba(86,111,190,.2)" stroke-width="1px" fill="rgba(86,111,190,.2)"/><path d=" M 91 213 L 62 188  70 178  81 188  90 163  97 167  101 179  122 212  151 215  L 91 213  Z" stroke="rgba(172,113,78,.2)" stroke-width="1px" fill="rgba(172,113,78,.2)"/><path d=" M 138 322 L 91 311  91 308  135 298  113 265  131 273  166 280  179 285  174 290  L 138 322  Z" stroke="rgba(195,68,213,.2)" stroke-width="1px" fill="rgba(195,68,213,.2)"/><path d=" M 332 162 L 276 155  277 134  270 122  277 112  225 91  247 70  291 52  335 87  L 332 162  Z" stroke="rgba(222,102,181,.2)" stroke-width="1px" fill="rgba(222,102,181,.2)"/><path d=" M 250 224 L 234 238  222 189  193 199  193 171  195 151  270 122  277 134  276 155  L 250 224  Z" stroke="rgba(105,143,60,.2)" stroke-width="1px" fill="rgba(105,143,60,.2)"/><path d=" M 332 162 L 277 134  276 155  270 122  225 91  247 70  291 52  287 100  335 87  L 332 162  Z" stroke="rgba(75,164,112,.2)" stroke-width="1px" fill="rgba(75,164,112,.2)"/><path d=" M 247 70 L 225 91  169 59  171 51  127 52  153 36  192 22  233 15  285 12  L 247 70  Z" stroke="rgba(179,185,211,.2)" stroke-width="1px" fill="rgba(179,185,211,.2)"/><path d=" M 332 162 L 276 155  277 134  270 122  277 112  287 100  247 70  291 52  285 12  L 332 162  Z" stroke="rgba(210,76,156,.2)" stroke-width="1px" fill="rgba(210,76,156,.2)"/><path d=" M 326 277 L 286 254  238 254  234 238  250 224  256 218  331 217  326 225  325 239  L 326 277  Z" stroke="rgba(201,68,87,.2)" stroke-width="1px" fill="rgba(201,68,87,.2)"/><path d=" M 49 312 L 41 325  18 320  70 178  62 188  81 188  42 219  91 213  109 216  L 49 312  Z" stroke="rgba(143,102,193,.2)" stroke-width="1px" fill="rgba(143,102,193,.2)"/></g>
            <g id="points"/>
          </g>
        </svg>