<svg xmlns="http://www.w3.org/2000/svg" width="360" height="336" preserveAspectRatio="xMidYMid meet">
          <iframe id="bg" x="0" y="0" style="fill: #1e2126" width="360" height="336"/>
          <g id="main">
            <g id="polygons"><path d=" M 150 86 L 145 63  120 76  92 60  88 43  105 31  112 25  96 19  126 19  L 150 86  Z" stroke="rgba(218,247,198,.2)" stroke-width="1px" fill="rgba(218,247,198,.2)"/><path d=" M 328 29 L 320 44  310 54  269 61  263 72  258 63  259 38  251 44  343 11  L 328 29  Z" stroke="rgba(222,211,172,.2)" stroke-width="1px" fill="rgba(222,211,172,.2)"/><path d=" M 32 251 L 34 223  23 248  20 238  23 212  34 176  41 207  59 181  71 190  L 32 251  Z" stroke="rgba(209,220,249,.2)" stroke-width="1px" fill="rgba(209,220,249,.2)"/><path d=" M 201 110 L 173 95  148 115  150 86  131 87  145 63  178 49  210 70  193 78  L 201 110  Z" stroke="rgba(218,220,150,.2)" stroke-width="1px" fill="rgba(218,220,150,.2)"/><path d=" M 148 311 L 141 310  129 309  104 285  137 284  143 293  139 296  154 293  159 298  L 148 311  Z" stroke="rgba(215,221,151,.2)" stroke-width="1px" fill="rgba(215,221,151,.2)"/><path d=" M 208 126 L 201 132  182 147  173 95  171 82  182 82  193 78  210 70  225 99  L 208 126  Z" stroke="rgba(168,172,244,.2)" stroke-width="1px" fill="rgba(168,172,244,.2)"/><path d=" M 84 146 L 71 151  59 154  34 140  36 134  34 128  58 102  81 93  66 129  L 84 146  Z" stroke="rgba(245,153,64,.2)" stroke-width="1px" fill="rgba(245,153,64,.2)"/><path d=" M 81 93 L 66 129  58 102  29 98  26 90  41 89  21 77  69 72  78 78  L 81 93  Z" stroke="rgba(224,219,168,.2)" stroke-width="1px" fill="rgba(224,219,168,.2)"/><path d=" M 73 316 L 43 311  41 309  20 322  20 238  23 248  32 251  48 262  39 283  L 73 316  Z" stroke="rgba(228,148,69,.2)" stroke-width="1px" fill="rgba(228,148,69,.2)"/><path d=" M 59 154 L 34 176  20 147  10 104  29 98  34 128  36 134  66 129  65 131  L 59 154  Z" stroke="rgba(193,245,102,.2)" stroke-width="1px" fill="rgba(193,245,102,.2)"/><path d=" M 194 168 L 153 175  148 178  159 156  154 146  159 146  182 147  187 154  205 154  L 194 168  Z" stroke="rgba(72,67,74,.2)" stroke-width="1px" fill="rgba(72,67,74,.2)"/><path d=" M 286 246 L 288 223  253 223  259 212  265 196  283 196  298 199  323 193  302 209  L 286 246  Z" stroke="rgba(80,121,71,.2)" stroke-width="1px" fill="rgba(80,121,71,.2)"/><path d=" M 71 190 L 106 184  99 177  90 171  103 146  121 139  159 156  153 175  148 178  L 71 190  Z" stroke="rgba(220,56,117,.2)" stroke-width="1px" fill="rgba(220,56,117,.2)"/><path d=" M 121 139 L 115 101  107 114  81 93  83 93  78 78  120 76  131 87  150 86  L 121 139  Z" stroke="rgba(137,147,108,.2)" stroke-width="1px" fill="rgba(137,147,108,.2)"/><path d=" M 321 79 L 297 83  297 76  310 54  320 44  328 29  343 11  343 14  349 37  L 321 79  Z" stroke="rgba(233,162,120,.2)" stroke-width="1px" fill="rgba(233,162,120,.2)"/><path d=" M 254 308 L 227 284  196 301  203 277  212 203  253 223  259 212  286 246  271 256  L 254 308  Z" stroke="rgba(117,106,205,.2)" stroke-width="1px" fill="rgba(117,106,205,.2)"/><path d=" M 71 190 L 41 207  35 220  23 212  20 147  34 140  36 134  59 154  71 151  L 71 190  Z" stroke="rgba(138,203,204,.2)" stroke-width="1px" fill="rgba(138,203,204,.2)"/><path d=" M 323 285 L 340 317  308 293  316 281  289 306  322 237  330 242  329 251  337 237  L 323 285  Z" stroke="rgba(221,76,191,.2)" stroke-width="1px" fill="rgba(221,76,191,.2)"/><path d=" M 330 242 L 322 237  288 223  302 209  289 213  298 199  283 196  292 168  344 157  L 330 242  Z" stroke="rgba(183,143,249,.2)" stroke-width="1px" fill="rgba(183,143,249,.2)"/><path d=" M 297 83 L 266 97  258 83  263 72  249 81  242 66  258 63  251 44  259 38  L 297 83  Z" stroke="rgba(182,223,230,.2)" stroke-width="1px" fill="rgba(182,223,230,.2)"/><path d=" M 78 78 L 69 72  77 36  73 30  73 21  96 19  112 25  105 31  126 19  L 78 78  Z" stroke="rgba(88,152,192,.2)" stroke-width="1px" fill="rgba(88,152,192,.2)"/><path d=" M 289 306 L 308 293  316 281  319 278  322 237  330 242  329 251  337 237  335 278  L 289 306  Z" stroke="rgba(246,79,70,.2)" stroke-width="1px" fill="rgba(246,79,70,.2)"/><path d=" M 34 223 L 48 262  32 251  23 248  20 238  34 176  59 181  71 190  41 207  L 34 223  Z" stroke="rgba(125,79,103,.2)" stroke-width="1px" fill="rgba(125,79,103,.2)"/><path d=" M 148 115 L 107 114  115 101  117 96  92 60  120 76  145 63  171 82  150 86  L 148 115  Z" stroke="rgba(101,170,69,.2)" stroke-width="1px" fill="rgba(101,170,69,.2)"/><path d=" M 263 72 L 266 97  258 83  249 81  242 66  218 68  251 44  259 38  269 61  L 263 72  Z" stroke="rgba(127,100,159,.2)" stroke-width="1px" fill="rgba(127,100,159,.2)"/><path d=" M 201 110 L 173 95  182 82  150 86  171 82  178 49  207 61  210 70  218 68  L 201 110  Z" stroke="rgba(250,226,206,.2)" stroke-width="1px" fill="rgba(250,226,206,.2)"/><path d=" M 324 99 L 297 83  292 90  297 76  269 61  328 29  320 44  349 37  334 46  L 324 99  Z" stroke="rgba(141,229,196,.2)" stroke-width="1px" fill="rgba(141,229,196,.2)"/><path d=" M 323 285 L 319 278  316 281  329 251  330 242  322 237  288 223  302 209  323 193  L 323 285  Z" stroke="rgba(178,168,241,.2)" stroke-width="1px" fill="rgba(178,168,241,.2)"/><path d=" M 41 207 L 34 176  59 181  59 154  71 151  84 146  90 171  99 177  106 184  L 41 207  Z" stroke="rgba(233,175,141,.2)" stroke-width="1px" fill="rgba(233,175,141,.2)"/><path d=" M 73 316 L 43 311  41 309  20 322  23 289  23 248  20 238  32 251  48 262  L 73 316  Z" stroke="rgba(228,73,91,.2)" stroke-width="1px" fill="rgba(228,73,91,.2)"/><path d=" M 323 285 L 319 278  316 281  308 293  286 246  288 223  322 237  330 242  337 237  L 323 285  Z" stroke="rgba(101,178,169,.2)" stroke-width="1px" fill="rgba(101,178,169,.2)"/><path d=" M 106 184 L 99 177  90 171  71 151  84 146  65 131  66 129  107 114  121 139  L 106 184  Z" stroke="rgba(165,142,154,.2)" stroke-width="1px" fill="rgba(165,142,154,.2)"/><path d=" M 298 199 L 283 196  289 213  265 196  259 212  250 143  259 135  266 118  280 157  L 298 199  Z" stroke="rgba(227,122,174,.2)" stroke-width="1px" fill="rgba(227,122,174,.2)"/><path d=" M 36 134 L 34 140  20 147  21 77  26 90  41 89  29 98  55 90  58 102  L 36 134  Z" stroke="rgba(165,168,168,.2)" stroke-width="1px" fill="rgba(165,168,168,.2)"/><path d=" M 141 310 L 129 309  131 299  139 296  137 284  143 293  154 293  171 294  159 298  L 141 310  Z" stroke="rgba(172,170,59,.2)" stroke-width="1px" fill="rgba(172,170,59,.2)"/><path d=" M 251 44 L 258 63  242 66  218 68  210 70  207 61  193 78  178 49  281 13  L 251 44  Z" stroke="rgba(85,66,92,.2)" stroke-width="1px" fill="rgba(85,66,92,.2)"/><path d=" M 286 246 L 271 256  236 258  212 203  265 196  259 212  283 196  302 209  289 213  L 286 246  Z" stroke="rgba(165,131,169,.2)" stroke-width="1px" fill="rgba(165,131,169,.2)"/><path d=" M 81 93 L 58 102  55 90  41 89  69 72  77 36  88 43  92 60  120 76  L 81 93  Z" stroke="rgba(170,178,241,.2)" stroke-width="1px" fill="rgba(170,178,241,.2)"/><path d=" M 148 178 L 120 183  154 146  159 146  159 156  165 158  182 147  187 154  194 168  L 148 178  Z" stroke="rgba(235,62,190,.2)" stroke-width="1px" fill="rgba(235,62,190,.2)"/><path d=" M 159 298 L 148 311  141 310  141 300  131 299  139 296  143 293  137 284  172 284  L 159 298  Z" stroke="rgba(225,103,229,.2)" stroke-width="1px" fill="rgba(225,103,229,.2)"/><path d=" M 302 209 L 288 223  289 213  259 212  265 196  283 196  268 167  292 168  323 193  L 302 209  Z" stroke="rgba(189,157,133,.2)" stroke-width="1px" fill="rgba(189,157,133,.2)"/><path d=" M 289 306 L 266 307  271 256  286 246  329 251  316 281  319 278  335 278  323 285  L 289 306  Z" stroke="rgba(61,169,171,.2)" stroke-width="1px" fill="rgba(61,169,171,.2)"/><path d=" M 145 63 L 92 60  88 43  105 31  112 25  77 36  73 30  73 21  96 19  L 145 63  Z" stroke="rgba(218,134,148,.2)" stroke-width="1px" fill="rgba(218,134,148,.2)"/><path d=" M 55 90 L 41 89  58 102  26 90  29 98  34 128  10 104  20 56  69 72  L 55 90  Z" stroke="rgba(186,182,97,.2)" stroke-width="1px" fill="rgba(186,182,97,.2)"/><path d=" M 148 115 L 131 87  150 86  145 63  171 82  178 49  182 82  193 78  210 70  L 148 115  Z" stroke="rgba(133,67,131,.2)" stroke-width="1px" fill="rgba(133,67,131,.2)"/><path d=" M 141 310 L 159 298  154 293  171 294  172 284  183 294  196 301  203 277  227 284  L 141 310  Z" stroke="rgba(78,86,68,.2)" stroke-width="1px" fill="rgba(78,86,68,.2)"/><path d=" M 263 323 L 254 308  266 307  271 256  319 278  316 281  308 293  323 285  335 278  L 263 323  Z" stroke="rgba(147,171,61,.2)" stroke-width="1px" fill="rgba(147,171,61,.2)"/><path d=" M 302 209 L 289 213  288 223  259 212  265 196  268 167  280 157  292 168  323 193  L 302 209  Z" stroke="rgba(105,197,91,.2)" stroke-width="1px" fill="rgba(105,197,91,.2)"/><path d=" M 165 158 L 194 168  153 175  148 178  121 139  154 146  159 146  182 147  187 154  L 165 158  Z" stroke="rgba(179,251,156,.2)" stroke-width="1px" fill="rgba(179,251,156,.2)"/><path d=" M 321 79 L 297 83  297 76  334 46  310 54  320 44  328 29  343 14  343 11  L 321 79  Z" stroke="rgba(231,89,247,.2)" stroke-width="1px" fill="rgba(231,89,247,.2)"/><path d=" M 266 118 L 266 97  258 83  263 72  269 61  297 76  310 54  297 83  321 79  L 266 118  Z" stroke="rgba(112,103,217,.2)" stroke-width="1px" fill="rgba(112,103,217,.2)"/><path d=" M 154 146 L 121 139  107 114  115 101  117 96  131 87  150 86  171 82  173 95  L 154 146  Z" stroke="rgba(118,177,75,.2)" stroke-width="1px" fill="rgba(118,177,75,.2)"/><path d=" M 92 60 L 105 31  88 43  77 36  73 30  73 21  96 19  126 19  144 21  L 92 60  Z" stroke="rgba(130,201,127,.2)" stroke-width="1px" fill="rgba(130,201,127,.2)"/><path d=" M 298 199 L 302 209  289 213  288 223  259 212  253 223  268 167  280 157  292 168  L 298 199  Z" stroke="rgba(67,97,184,.2)" stroke-width="1px" fill="rgba(67,97,184,.2)"/><path d=" M 292 90 L 297 83  297 76  269 61  310 54  320 44  328 29  334 46  349 37  L 292 90  Z" stroke="rgba(82,237,167,.2)" stroke-width="1px" fill="rgba(82,237,167,.2)"/><path d=" M 39 283 L 23 289  23 248  20 238  23 212  34 223  35 220  41 207  85 237  L 39 283  Z" stroke="rgba(158,56,58,.2)" stroke-width="1px" fill="rgba(158,56,58,.2)"/><path d=" M 292 90 L 266 97  258 83  249 81  242 66  258 63  251 44  259 38  269 61  L 292 90  Z" stroke="rgba(172,60,113,.2)" stroke-width="1px" fill="rgba(172,60,113,.2)"/><path d=" M 141 310 L 131 299  141 300  139 296  137 284  143 293  154 293  159 298  171 294  L 141 310  Z" stroke="rgba(151,141,230,.2)" stroke-width="1px" fill="rgba(151,141,230,.2)"/><path d=" M 129 309 L 131 299  137 284  139 296  141 300  143 293  154 293  159 298  171 294  L 129 309  Z" stroke="rgba(218,176,128,.2)" stroke-width="1px" fill="rgba(218,176,128,.2)"/><path d=" M 292 168 L 298 199  283 196  265 196  268 167  250 143  259 135  246 119  266 118  L 292 168  Z" stroke="rgba(225,240,162,.2)" stroke-width="1px" fill="rgba(225,240,162,.2)"/><path d=" M 219 132 L 208 126  201 110  193 78  210 70  218 68  242 66  249 81  258 83  L 219 132  Z" stroke="rgba(93,209,246,.2)" stroke-width="1px" fill="rgba(93,209,246,.2)"/><path d=" M 120 195 L 106 184  71 190  59 181  90 171  71 151  84 146  103 146  121 139  L 120 195  Z" stroke="rgba(198,179,97,.2)" stroke-width="1px" fill="rgba(198,179,97,.2)"/><path d=" M 140 251 L 172 223  120 195  148 178  153 175  165 158  194 168  199 165  212 203  L 140 251  Z" stroke="rgba(154,99,120,.2)" stroke-width="1px" fill="rgba(154,99,120,.2)"/><path d=" M 148 311 L 141 300  141 310  129 309  131 299  137 284  143 293  154 293  171 294  L 148 311  Z" stroke="rgba(119,222,173,.2)" stroke-width="1px" fill="rgba(119,222,173,.2)"/><path d=" M 288 223 L 286 246  271 256  253 223  268 167  265 196  283 196  298 199  302 209  L 288 223  Z" stroke="rgba(139,155,136,.2)" stroke-width="1px" fill="rgba(139,155,136,.2)"/><path d=" M 253 223 L 236 258  172 223  177 219  194 168  187 154  199 165  205 154  265 196  L 253 223  Z" stroke="rgba(189,74,236,.2)" stroke-width="1px" fill="rgba(189,74,236,.2)"/><path d=" M 98 325 L 43 311  20 322  23 289  23 248  32 251  39 283  48 262  75 307  L 98 325  Z" stroke="rgba(198,63,159,.2)" stroke-width="1px" fill="rgba(198,63,159,.2)"/><path d=" M 104 285 L 48 262  34 223  85 237  35 220  41 207  71 190  106 184  120 195  L 104 285  Z" stroke="rgba(229,144,117,.2)" stroke-width="1px" fill="rgba(229,144,117,.2)"/><path d=" M 65 131 L 29 98  26 90  41 89  55 90  69 72  78 78  81 93  83 93  L 65 131  Z" stroke="rgba(133,204,173,.2)" stroke-width="1px" fill="rgba(133,204,173,.2)"/><path d=" M 121 139 L 103 146  84 146  81 93  83 93  120 76  117 96  115 101  131 87  L 121 139  Z" stroke="rgba(219,73,97,.2)" stroke-width="1px" fill="rgba(219,73,97,.2)"/><path d=" M 292 168 L 268 167  205 154  219 132  208 126  246 119  266 97  266 118  259 135  L 292 168  Z" stroke="rgba(155,221,231,.2)" stroke-width="1px" fill="rgba(155,221,231,.2)"/><path d=" M 266 118 L 266 97  292 90  297 83  297 76  310 54  321 79  320 44  334 46  L 266 118  Z" stroke="rgba(123,122,245,.2)" stroke-width="1px" fill="rgba(123,122,245,.2)"/><path d=" M 139 296 L 141 300  131 299  141 310  129 309  98 325  73 316  75 307  137 284  L 139 296  Z" stroke="rgba(107,188,172,.2)" stroke-width="1px" fill="rgba(107,188,172,.2)"/><path d=" M 99 177 L 90 171  59 181  71 151  59 154  65 131  66 129  107 114  121 139  L 99 177  Z" stroke="rgba(211,126,100,.2)" stroke-width="1px" fill="rgba(211,126,100,.2)"/><path d=" M 292 90 L 266 97  258 83  263 72  258 63  269 61  297 76  310 54  321 79  L 292 90  Z" stroke="rgba(240,248,137,.2)" stroke-width="1px" fill="rgba(240,248,137,.2)"/><path d=" M 249 81 L 218 68  225 99  210 70  193 78  182 82  171 82  178 49  213 15  L 249 81  Z" stroke="rgba(146,126,78,.2)" stroke-width="1px" fill="rgba(146,126,78,.2)"/><path d=" M 334 46 L 321 79  297 83  297 76  320 44  310 54  328 29  281 13  343 11  L 334 46  Z" stroke="rgba(84,115,241,.2)" stroke-width="1px" fill="rgba(84,115,241,.2)"/><path d=" M 199 165 L 194 168  165 158  159 156  154 146  159 146  182 147  201 132  208 126  L 199 165  Z" stroke="rgba(137,200,220,.2)" stroke-width="1px" fill="rgba(137,200,220,.2)"/><path d=" M 254 308 L 195 314  196 301  183 294  171 294  159 298  154 293  172 284  236 258  L 254 308  Z" stroke="rgba(121,167,192,.2)" stroke-width="1px" fill="rgba(121,167,192,.2)"/><path d=" M 289 306 L 323 285  308 293  316 281  319 278  322 237  329 251  330 242  337 237  L 289 306  Z" stroke="rgba(178,108,56,.2)" stroke-width="1px" fill="rgba(178,108,56,.2)"/><path d=" M 32 251 L 39 283  23 248  23 289  23 212  34 176  41 207  35 220  34 223  L 32 251  Z" stroke="rgba(237,173,217,.2)" stroke-width="1px" fill="rgba(237,173,217,.2)"/><path d=" M 249 81 L 225 99  193 78  182 82  210 70  207 61  251 44  258 63  242 66  L 249 81  Z" stroke="rgba(64,76,93,.2)" stroke-width="1px" fill="rgba(64,76,93,.2)"/><path d=" M 115 101 L 107 114  66 129  58 102  81 93  55 90  69 72  78 78  92 60  L 115 101  Z" stroke="rgba(195,233,222,.2)" stroke-width="1px" fill="rgba(195,233,222,.2)"/><path d=" M 90 171 L 59 181  59 154  34 140  36 134  65 131  66 129  84 146  103 146  L 90 171  Z" stroke="rgba(160,210,126,.2)" stroke-width="1px" fill="rgba(160,210,126,.2)"/><path d=" M 250 143 L 219 132  208 126  201 110  225 99  249 81  258 83  266 97  266 118  L 250 143  Z" stroke="rgba(91,93,218,.2)" stroke-width="1px" fill="rgba(91,93,218,.2)"/><path d=" M 91 239 L 104 285  48 262  32 251  34 223  35 220  41 207  71 190  120 195  L 91 239  Z" stroke="rgba(117,118,190,.2)" stroke-width="1px" fill="rgba(117,118,190,.2)"/><path d=" M 182 147 L 187 154  194 168  165 158  159 156  153 175  148 178  121 139  148 115  L 182 147  Z" stroke="rgba(144,182,104,.2)" stroke-width="1px" fill="rgba(144,182,104,.2)"/><path d=" M 172 284 L 140 251  120 195  148 178  153 175  194 168  199 165  177 219  212 203  L 172 284  Z" stroke="rgba(207,155,231,.2)" stroke-width="1px" fill="rgba(207,155,231,.2)"/><path d=" M 92 60 L 88 43  77 36  73 30  73 21  96 19  112 25  126 19  144 21  L 92 60  Z" stroke="rgba(130,106,216,.2)" stroke-width="1px" fill="rgba(130,106,216,.2)"/><path d=" M 144 21 L 112 25  105 31  92 60  88 43  69 72  77 36  73 30  73 21  L 144 21  Z" stroke="rgba(185,143,69,.2)" stroke-width="1px" fill="rgba(185,143,69,.2)"/><path d=" M 286 246 L 271 256  253 223  259 212  265 196  283 196  289 213  298 199  302 209  L 286 246  Z" stroke="rgba(75,164,100,.2)" stroke-width="1px" fill="rgba(75,164,100,.2)"/><path d=" M 194 168 L 165 158  159 156  187 154  182 147  201 132  201 110  208 126  219 132  L 194 168  Z" stroke="rgba(232,142,226,.2)" stroke-width="1px" fill="rgba(232,142,226,.2)"/><path d=" M 23 248 L 23 289  32 251  48 262  39 283  41 309  43 311  75 307  73 316  L 23 248  Z" stroke="rgba(196,179,148,.2)" stroke-width="1px" fill="rgba(196,179,148,.2)"/><path d=" M 148 311 L 104 285  131 299  137 284  139 296  143 293  141 300  154 293  159 298  L 148 311  Z" stroke="rgba(148,152,67,.2)" stroke-width="1px" fill="rgba(148,152,67,.2)"/><path d=" M 88 43 L 77 36  92 60  78 78  69 72  29 11  73 21  96 19  112 25  L 88 43  Z" stroke="rgba(188,114,111,.2)" stroke-width="1px" fill="rgba(188,114,111,.2)"/><path d=" M 58 102 L 29 98  36 134  34 128  10 104  21 77  20 56  69 72  41 89  L 58 102  Z" stroke="rgba(147,62,132,.2)" stroke-width="1px" fill="rgba(147,62,132,.2)"/><path d=" M 205 154 L 199 165  194 168  187 154  182 147  159 146  201 110  225 99  208 126  L 205 154  Z" stroke="rgba(174,76,118,.2)" stroke-width="1px" fill="rgba(174,76,118,.2)"/><path d=" M 59 154 L 34 176  10 104  29 98  34 128  36 134  34 140  66 129  65 131  L 59 154  Z" stroke="rgba(95,105,64,.2)" stroke-width="1px" fill="rgba(95,105,64,.2)"/><path d=" M 98 325 L 20 322  41 309  23 289  23 248  32 251  39 283  48 262  75 307  L 98 325  Z" stroke="rgba(179,80,102,.2)" stroke-width="1px" fill="rgba(179,80,102,.2)"/><path d=" M 98 325 L 73 316  43 311  41 309  23 289  39 283  48 262  104 285  131 299  L 98 325  Z" stroke="rgba(147,76,241,.2)" stroke-width="1px" fill="rgba(147,76,241,.2)"/><path d=" M 319 278 L 271 256  253 223  259 212  288 223  289 213  302 209  322 237  330 242  L 319 278  Z" stroke="rgba(124,80,185,.2)" stroke-width="1px" fill="rgba(124,80,185,.2)"/><path d=" M 330 242 L 329 251  335 278  319 278  286 246  288 223  289 213  302 209  323 193  L 330 242  Z" stroke="rgba(85,181,165,.2)" stroke-width="1px" fill="rgba(85,181,165,.2)"/><path d=" M 334 46 L 321 79  320 44  297 83  297 76  310 54  281 13  343 11  343 14  L 334 46  Z" stroke="rgba(212,56,104,.2)" stroke-width="1px" fill="rgba(212,56,104,.2)"/><path d=" M 324 99 L 297 83  292 90  266 97  258 83  263 72  269 61  310 54  320 44  L 324 99  Z" stroke="rgba(254,160,91,.2)" stroke-width="1px" fill="rgba(254,160,91,.2)"/><path d=" M 195 314 L 148 311  159 298  141 300  171 294  143 293  154 293  172 284  203 277  L 195 314  Z" stroke="rgba(72,77,108,.2)" stroke-width="1px" fill="rgba(72,77,108,.2)"/><path d=" M 196 301 L 227 284  254 308  236 258  271 256  266 307  316 281  308 293  289 306  L 196 301  Z" stroke="rgba(167,88,108,.2)" stroke-width="1px" fill="rgba(167,88,108,.2)"/><path d=" M 59 181 L 34 176  34 140  36 134  34 128  65 131  66 129  84 146  71 151  L 59 181  Z" stroke="rgba(251,132,107,.2)" stroke-width="1px" fill="rgba(251,132,107,.2)"/><path d=" M 83 93 L 81 93  78 78  69 72  73 30  77 36  88 43  105 31  112 25  L 83 93  Z" stroke="rgba(219,102,207,.2)" stroke-width="1px" fill="rgba(219,102,207,.2)"/><path d=" M 141 310 L 141 300  139 296  143 293  137 284  154 293  172 284  171 294  183 294  L 141 310  Z" stroke="rgba(242,252,162,.2)" stroke-width="1px" fill="rgba(242,252,162,.2)"/><path d=" M 75 307 L 104 285  131 299  143 293  139 296  141 300  129 309  141 310  148 311  L 75 307  Z" stroke="rgba(172,161,59,.2)" stroke-width="1px" fill="rgba(172,161,59,.2)"/><path d=" M 286 246 L 288 223  289 213  259 212  265 196  283 196  298 199  292 168  323 193  L 286 246  Z" stroke="rgba(68,181,161,.2)" stroke-width="1px" fill="rgba(68,181,161,.2)"/><path d=" M 131 87 L 117 96  115 101  107 114  83 93  81 93  78 78  92 60  145 63  L 131 87  Z" stroke="rgba(229,123,234,.2)" stroke-width="1px" fill="rgba(229,123,234,.2)"/><path d=" M 266 97 L 266 118  246 119  225 99  249 81  242 66  258 63  263 72  269 61  L 266 97  Z" stroke="rgba(117,108,183,.2)" stroke-width="1px" fill="rgba(117,108,183,.2)"/><path d=" M 308 293 L 266 307  227 284  236 258  253 223  259 212  289 213  288 223  286 246  L 308 293  Z" stroke="rgba(73,106,167,.2)" stroke-width="1px" fill="rgba(73,106,167,.2)"/><path d=" M 171 82 L 173 95  150 86  131 87  117 96  120 76  126 19  144 21  178 49  L 171 82  Z" stroke="rgba(142,210,159,.2)" stroke-width="1px" fill="rgba(142,210,159,.2)"/><path d=" M 205 154 L 199 165  194 168  187 154  201 132  182 147  201 110  225 99  246 119  L 205 154  Z" stroke="rgba(204,144,167,.2)" stroke-width="1px" fill="rgba(204,144,167,.2)"/><path d=" M 55 90 L 58 102  41 89  29 98  26 90  21 77  10 104  29 11  73 30  L 55 90  Z" stroke="rgba(224,244,146,.2)" stroke-width="1px" fill="rgba(224,244,146,.2)"/><path d=" M 148 311 L 159 298  143 293  154 293  171 294  183 294  172 284  203 277  227 284  L 148 311  Z" stroke="rgba(110,123,125,.2)" stroke-width="1px" fill="rgba(110,123,125,.2)"/><path d=" M 258 83 L 249 81  210 70  218 68  207 61  251 44  259 38  258 63  269 61  L 258 83  Z" stroke="rgba(244,152,190,.2)" stroke-width="1px" fill="rgba(244,152,190,.2)"/><path d=" M 196 301 L 195 314  148 311  159 298  141 300  139 296  143 293  154 293  172 284  L 196 301  Z" stroke="rgba(95,168,246,.2)" stroke-width="1px" fill="rgba(95,168,246,.2)"/><path d=" M 340 317 L 308 293  289 306  286 246  322 237  330 242  329 251  319 278  335 278  L 340 317  Z" stroke="rgba(139,151,94,.2)" stroke-width="1px" fill="rgba(139,151,94,.2)"/><path d=" M 263 72 L 258 83  258 63  249 81  242 66  251 44  218 68  213 15  281 13  L 263 72  Z" stroke="rgba(77,123,200,.2)" stroke-width="1px" fill="rgba(77,123,200,.2)"/><path d=" M 32 251 L 23 248  20 238  23 212  34 176  35 220  41 207  59 181  71 190  L 32 251  Z" stroke="rgba(208,141,207,.2)" stroke-width="1px" fill="rgba(208,141,207,.2)"/><path d=" M 171 294 L 159 298  148 311  141 310  141 300  129 309  139 296  131 299  137 284  L 171 294  Z" stroke="rgba(74,169,150,.2)" stroke-width="1px" fill="rgba(74,169,150,.2)"/><path d=" M 183 294 L 171 294  159 298  141 300  154 293  139 296  143 293  137 284  203 277  L 183 294  Z" stroke="rgba(88,235,152,.2)" stroke-width="1px" fill="rgba(88,235,152,.2)"/><path d=" M 159 298 L 143 293  148 311  141 300  139 296  141 310  129 309  131 299  104 285  L 159 298  Z" stroke="rgba(139,166,241,.2)" stroke-width="1px" fill="rgba(139,166,241,.2)"/><path d=" M 117 96 L 115 101  107 114  66 129  58 102  55 90  69 72  78 78  92 60  L 117 96  Z" stroke="rgba(102,114,130,.2)" stroke-width="1px" fill="rgba(102,114,130,.2)"/><path d=" M 71 190 L 35 220  41 207  34 176  59 154  71 151  84 146  90 171  99 177  L 71 190  Z" stroke="rgba(65,158,190,.2)" stroke-width="1px" fill="rgba(65,158,190,.2)"/><path d=" M 218 68 L 210 70  193 78  182 82  173 95  171 82  150 86  145 63  144 21  L 218 68  Z" stroke="rgba(214,208,235,.2)" stroke-width="1px" fill="rgba(214,208,235,.2)"/><path d=" M 120 183 L 106 184  154 146  159 146  159 156  165 158  182 147  187 154  153 175  L 120 183  Z" stroke="rgba(141,159,57,.2)" stroke-width="1px" fill="rgba(141,159,57,.2)"/><path d=" M 121 139 L 107 114  81 93  83 93  78 78  120 76  117 96  131 87  150 86  L 121 139  Z" stroke="rgba(82,158,97,.2)" stroke-width="1px" fill="rgba(82,158,97,.2)"/><path d=" M 329 251 L 323 285  319 278  316 281  286 246  288 223  322 237  302 209  337 237  L 329 251  Z" stroke="rgba(142,113,160,.2)" stroke-width="1px" fill="rgba(142,113,160,.2)"/><path d=" M 266 97 L 246 119  225 99  218 68  242 66  251 44  258 63  269 61  263 72  L 266 97  Z" stroke="rgba(213,216,222,.2)" stroke-width="1px" fill="rgba(213,216,222,.2)"/><path d=" M 105 31 L 88 43  92 60  77 36  73 30  69 72  29 11  96 19  126 19  L 105 31  Z" stroke="rgba(96,145,220,.2)" stroke-width="1px" fill="rgba(96,145,220,.2)"/><path d=" M 85 237 L 71 190  106 184  90 171  99 177  103 146  120 183  148 178  153 175  L 85 237  Z" stroke="rgba(244,72,201,.2)" stroke-width="1px" fill="rgba(244,72,201,.2)"/><path d=" M 153 175 L 159 156  165 158  159 146  182 147  187 154  201 132  205 154  199 165  L 153 175  Z" stroke="rgba(229,99,232,.2)" stroke-width="1px" fill="rgba(229,99,232,.2)"/><path d=" M 59 154 L 34 140  20 147  10 104  34 128  29 98  58 102  66 129  65 131  L 59 154  Z" stroke="rgba(179,229,64,.2)" stroke-width="1px" fill="rgba(179,229,64,.2)"/><path d=" M 36 134 L 34 128  34 140  10 104  21 77  26 90  20 56  41 89  55 90  L 36 134  Z" stroke="rgba(197,112,139,.2)" stroke-width="1px" fill="rgba(197,112,139,.2)"/><path d=" M 194 168 L 165 158  159 156  187 154  182 147  201 132  208 126  205 154  219 132  L 194 168  Z" stroke="rgba(136,207,237,.2)" stroke-width="1px" fill="rgba(136,207,237,.2)"/><path d=" M 99 177 L 120 195  106 184  71 190  59 181  59 154  71 151  84 146  103 146  L 99 177  Z" stroke="rgba(100,104,246,.2)" stroke-width="1px" fill="rgba(100,104,246,.2)"/><path d=" M 154 293 L 143 293  141 300  139 296  137 284  131 299  104 285  172 223  177 219  L 154 293  Z" stroke="rgba(63,228,223,.2)" stroke-width="1px" fill="rgba(63,228,223,.2)"/><path d=" M 32 251 L 34 223  23 248  35 220  20 238  23 212  34 176  59 181  71 190  L 32 251  Z" stroke="rgba(237,104,186,.2)" stroke-width="1px" fill="rgba(237,104,186,.2)"/><path d=" M 259 135 L 250 143  246 119  225 99  249 81  258 83  263 72  266 97  292 90  L 259 135  Z" stroke="rgba(254,91,123,.2)" stroke-width="1px" fill="rgba(254,91,123,.2)"/><path d=" M 266 307 L 289 306  308 293  316 281  319 278  323 285  329 251  330 242  335 278  L 266 307  Z" stroke="rgba(145,77,80,.2)" stroke-width="1px" fill="rgba(145,77,80,.2)"/><path d=" M 323 193 L 302 209  289 213  298 199  283 196  292 168  268 167  280 157  324 99  L 323 193  Z" stroke="rgba(153,61,245,.2)" stroke-width="1px" fill="rgba(153,61,245,.2)"/><path d=" M 263 72 L 258 63  258 83  249 81  242 66  218 68  207 61  281 13  259 38  L 263 72  Z" stroke="rgba(191,252,116,.2)" stroke-width="1px" fill="rgba(191,252,116,.2)"/><path d=" M 254 308 L 263 323  195 314  196 301  183 294  172 284  203 277  236 258  271 256  L 254 308  Z" stroke="rgba(217,186,188,.2)" stroke-width="1px" fill="rgba(217,186,188,.2)"/><path d=" M 154 146 L 159 156  99 177  103 146  84 146  107 114  115 101  117 96  148 115  L 154 146  Z" stroke="rgba(189,161,123,.2)" stroke-width="1px" fill="rgba(189,161,123,.2)"/><path d=" M 280 157 L 268 167  250 143  219 132  208 126  225 99  246 119  266 97  266 118  L 280 157  Z" stroke="rgba(188,179,150,.2)" stroke-width="1px" fill="rgba(188,179,150,.2)"/><path d=" M 148 115 L 115 101  117 96  131 87  120 76  145 63  171 82  193 78  182 82  L 148 115  Z" stroke="rgba(126,102,111,.2)" stroke-width="1px" fill="rgba(126,102,111,.2)"/><path d=" M 246 119 L 249 81  258 83  258 63  263 72  269 61  297 76  297 83  292 90  L 246 119  Z" stroke="rgba(206,92,94,.2)" stroke-width="1px" fill="rgba(206,92,94,.2)"/><path d=" M 71 151 L 59 154  65 131  34 140  36 134  34 128  58 102  81 93  83 93  L 71 151  Z" stroke="rgba(233,204,161,.2)" stroke-width="1px" fill="rgba(233,204,161,.2)"/><path d=" M 302 209 L 298 199  289 213  283 196  265 196  268 167  250 143  280 157  259 135  L 302 209  Z" stroke="rgba(242,239,57,.2)" stroke-width="1px" fill="rgba(242,239,57,.2)"/><path d=" M 48 262 L 39 283  23 289  20 238  23 212  35 220  41 207  34 223  85 237  L 48 262  Z" stroke="rgba(186,105,118,.2)" stroke-width="1px" fill="rgba(186,105,118,.2)"/><path d=" M 343 14 L 334 46  321 79  297 83  320 44  297 76  310 54  328 29  281 13  L 343 14  Z" stroke="rgba(205,99,172,.2)" stroke-width="1px" fill="rgba(205,99,172,.2)"/><path d=" M 20 322 L 43 311  41 309  23 289  39 283  48 262  75 307  104 285  129 309  L 20 322  Z" stroke="rgba(175,207,118,.2)" stroke-width="1px" fill="rgba(175,207,118,.2)"/><path d=" M 83 93 L 81 93  58 102  55 90  41 89  73 30  77 36  88 43  92 60  L 83 93  Z" stroke="rgba(109,191,248,.2)" stroke-width="1px" fill="rgba(109,191,248,.2)"/><path d=" M 65 131 L 59 154  36 134  34 140  20 147  10 104  26 90  29 98  58 102  L 65 131  Z" stroke="rgba(108,188,220,.2)" stroke-width="1px" fill="rgba(108,188,220,.2)"/><path d=" M 71 190 L 59 181  90 171  99 177  84 146  103 146  121 139  148 178  120 183  L 71 190  Z" stroke="rgba(97,79,130,.2)" stroke-width="1px" fill="rgba(97,79,130,.2)"/><path d=" M 254 308 L 227 284  236 258  271 256  319 278  316 281  323 285  308 293  289 306  L 254 308  Z" stroke="rgba(242,150,203,.2)" stroke-width="1px" fill="rgba(242,150,203,.2)"/><path d=" M 195 314 L 196 301  203 277  227 284  236 258  271 256  308 293  266 307  289 306  L 195 314  Z" stroke="rgba(73,112,193,.2)" stroke-width="1px" fill="rgba(73,112,193,.2)"/><path d=" M 225 99 L 201 110  193 78  182 82  171 82  178 49  207 61  218 68  242 66  L 225 99  Z" stroke="rgba(91,226,99,.2)" stroke-width="1px" fill="rgba(91,226,99,.2)"/><path d=" M 187 154 L 194 168  165 158  159 156  153 175  148 178  154 146  121 139  148 115  L 187 154  Z" stroke="rgba(113,92,73,.2)" stroke-width="1px" fill="rgba(113,92,73,.2)"/><path d=" M 92 60 L 78 78  69 72  73 30  73 21  96 19  126 19  112 25  105 31  L 92 60  Z" stroke="rgba(249,195,202,.2)" stroke-width="1px" fill="rgba(249,195,202,.2)"/><path d=" M 173 95 L 150 86  171 82  145 63  178 49  207 61  210 70  218 68  193 78  L 173 95  Z" stroke="rgba(55,177,228,.2)" stroke-width="1px" fill="rgba(55,177,228,.2)"/><path d=" M 321 79 L 297 83  297 76  310 54  281 13  328 29  343 11  343 14  349 37  L 321 79  Z" stroke="rgba(248,167,61,.2)" stroke-width="1px" fill="rgba(248,167,61,.2)"/><path d=" M 73 21 L 105 31  73 30  77 36  88 43  69 72  41 89  21 77  20 56  L 73 21  Z" stroke="rgba(154,124,252,.2)" stroke-width="1px" fill="rgba(154,124,252,.2)"/><path d=" M 199 165 L 187 154  194 168  165 158  159 156  154 146  159 146  208 126  201 132  L 199 165  Z" stroke="rgba(75,226,110,.2)" stroke-width="1px" fill="rgba(75,226,110,.2)"/><path d=" M 199 165 L 205 154  187 154  182 147  201 132  208 126  201 110  225 99  246 119  L 199 165  Z" stroke="rgba(186,156,185,.2)" stroke-width="1px" fill="rgba(186,156,185,.2)"/><path d=" M 39 283 L 23 289  23 248  32 251  20 238  34 223  35 220  85 237  91 239  L 39 283  Z" stroke="rgba(235,60,76,.2)" stroke-width="1px" fill="rgba(235,60,76,.2)"/><path d=" M 58 102 L 34 128  29 98  10 104  26 90  21 77  20 56  69 72  78 78  L 58 102  Z" stroke="rgba(153,247,179,.2)" stroke-width="1px" fill="rgba(153,247,179,.2)"/></g>
            <g id="points"/>
          </g>
        </svg>